<?xml version="1.0" encoding="UTF-8"?>
<svg version="1.1" xmlns="http://www.w3.org/2000/svg" width="580" height="474">
<path d="M0 0 C0.68342638 0.00053453 1.36685277 0.00106906 2.07098904 0.00161979 C4.35371232 0.00464027 6.63634401 0.01489919 8.91904545 0.02513981 C10.57500607 0.02883584 12.23096774 0.03208455 13.88693005 0.03492504 C18.43176471 0.04401333 22.97655909 0.05944228 27.5213722 0.07590783 C32.42448957 0.09256022 37.32762028 0.10333049 42.23075199 0.11481571 C50.7239118 0.13551512 59.21705433 0.15994003 67.7101965 0.18689632 C79.9898504 0.22586521 92.26951451 0.25921393 104.54918838 0.29119159 C124.4722146 0.343226 144.39522521 0.39980474 164.31823063 0.4592371 C183.67141456 0.5169599 203.02460268 0.57254509 222.37780094 0.62525272 C223.57076011 0.62850244 224.76371927 0.63175216 225.99282872 0.63510036 C231.97756269 0.65139007 237.96229676 0.66763773 243.9470309 0.68386447 C293.59527882 0.81853298 343.2435037 0.96057474 392.89171696 1.10743046 C392.41873964 2.70172065 391.9443561 4.29559371 391.46938419 5.88929081 C391.20536367 6.77692364 390.94134315 7.66455647 390.66932201 8.57908726 C389.71805458 11.67208482 388.61552305 14.68416146 387.44640446 17.70118046 C387.00941227 18.83297733 386.57242008 19.96477421 386.12218571 21.13086796 C385.67488102 22.27813358 385.22757633 23.42539921 384.76671696 24.60743046 C384.31167789 25.78563358 383.85663883 26.96383671 383.38781071 28.17774296 C380.05649693 36.77787051 380.05649693 36.77787051 378.89171696 39.10743046 C369.32171696 39.10743046 359.75171696 39.10743046 349.89171696 39.10743046 C349.56171696 40.75743046 349.23171696 42.40743046 348.89171696 44.10743046 C348.09972665 46.25515118 347.26039174 48.38570197 346.38781071 50.50196171 C345.8947443 51.70401249 345.40167789 52.90606327 344.89367008 54.14453983 C344.37228291 55.40304365 343.8507973 56.66150669 343.32921696 57.91993046 C342.80341538 59.19775623 342.27802048 60.47574942 341.75304508 61.75391483 C340.46992644 64.87342345 339.18268311 67.99116312 337.89171696 71.10743046 C337.31986196 71.10981881 336.74800695 71.11220716 336.15882301 71.11466789 C322.1661863 71.17411708 308.17371426 71.24985418 294.18126106 71.34314537 C287.41427079 71.38788036 280.64733055 71.42734454 273.88024235 71.453866 C267.33784197 71.47952234 260.79563865 71.52057396 254.25337887 71.57061672 C251.76943565 71.58717741 249.2854536 71.59875836 246.80146313 71.60504436 C217.9734255 71.68531044 190.89010388 75.45074746 169.50499821 96.46289921 C168.64261539 97.33559452 167.78023258 98.20828983 166.89171696 99.10743046 C166.22527164 99.76356327 165.55882633 100.41969608 164.87218571 101.09571171 C147.62219779 119.28023621 144.58983271 143.12880064 144.60460758 167.02515507 C144.598574 169.01878988 144.59164739 171.01242217 144.58390141 173.00605106 C144.56908518 177.27675396 144.56028173 181.54741068 144.55619144 185.81813717 C144.54944808 192.57091104 144.52766223 199.32358626 144.50365543 206.07631779 C144.45066743 221.61850107 144.41712308 237.1607146 144.38389683 252.70295048 C144.35320878 266.97244717 144.31841471 281.24190108 144.26758623 295.51134211 C144.24423785 302.22536994 144.23049727 308.93932824 144.22409153 315.65339267 C144.21816028 319.8229302 144.20407154 323.99241104 144.187747 328.16191959 C144.1818641 330.09650341 144.17940021 332.03110107 144.18058681 333.96569347 C144.18174391 336.60399735 144.1707464 339.24198184 144.15673161 341.88024235 C144.16168007 343.03091164 144.16168007 343.03091164 144.1667285 344.20482677 C144.11649968 349.92466797 143.35027094 353.44261631 139.57140446 357.75586796 C138.64585758 358.65563358 137.72031071 359.55539921 136.76671696 360.48243046 C136.0274799 361.20523197 136.0274799 361.20523197 135.27330875 361.94263554 C131.89070229 365.22412102 128.40030901 368.35412649 124.80968571 371.40430546 C121.90323186 373.98518912 119.23558782 376.79025925 116.55577946 379.60352421 C114.89171696 381.10743046 114.89171696 381.10743046 112.89171696 381.10743046 C112.89171696 381.76743046 112.89171696 382.42743046 112.89171696 383.10743046 C111.31749821 384.65821171 111.31749821 384.65821171 109.20421696 386.41993046 C106.69369402 388.5438773 104.28348274 390.6624439 102.01671696 393.04493046 C99.89171696 395.10743046 99.89171696 395.10743046 97.89171696 395.10743046 C97.89171696 395.76743046 97.89171696 396.42743046 97.89171696 397.10743046 C96.44713688 398.54615116 96.44713688 398.54615116 94.43468571 400.22071171 C89.09781239 404.75840558 84.05462161 409.57990123 78.98351383 414.41016483 C75.39762626 417.80851275 71.82450517 421.10547969 67.89171696 424.10743046 C66.59535365 419.17335023 66.77259946 414.30291013 66.80942631 409.24297428 C66.81265544 408.24231538 66.81588456 407.24165648 66.81921154 406.21067458 C66.83128534 402.8541996 66.85065858 399.49780646 66.86998844 396.141366 C66.88013136 393.73671999 66.88982502 391.33207204 66.89910221 388.92742252 C66.92009447 383.74858913 66.94421562 378.56978032 66.97118282 373.390975 C67.01016735 365.9033136 67.04350892 358.41563543 67.07547808 350.92794118 C67.12750032 338.77933626 67.18407928 326.63075702 67.2435236 314.48218632 C67.30125474 302.68174075 67.35683998 290.88128829 67.40953922 279.08081913 C67.41278894 278.35330583 67.41603866 277.62579252 67.41938686 276.87623336 C67.43567668 273.2264733 67.45192431 269.57671306 67.46815097 265.92695272 C67.60279877 235.65374571 67.745681 205.38058529 67.89171696 175.10743046 C48.42171696 175.43743046 28.95171696 175.76743046 8.89171696 176.10743046 C8.56171696 175.44743046 8.23171696 174.78743046 7.89171696 174.10743046 C9.18136872 172.73180191 10.51860988 171.39976653 11.89171696 170.10743046 C12.55171696 170.10743046 13.21171696 170.10743046 13.89171696 170.10743046 C14.12761539 169.55184452 14.36351383 168.99625858 14.60656071 168.42383671 C16.20449216 165.54367455 18.19672196 163.4437397 20.45421696 161.04493046 C24.733158 156.42121143 28.75640089 151.66559825 32.71202946 146.75977421 C35.49419083 143.37431261 38.40920594 140.12296338 41.36046696 136.88477421 C42.96010735 135.17480617 42.96010735 135.17480617 43.89171696 133.10743046 C44.55171696 133.10743046 45.21171696 133.10743046 45.89171696 133.10743046 C46.16113102 132.5183289 46.43054508 131.92922733 46.70812321 131.32227421 C47.89337042 129.10433635 49.14021592 127.52411497 50.82921696 125.66993046 C54.04534234 122.07937051 57.16793044 118.4238136 60.26671696 114.73243046 C63.6168426 110.75126256 67.01237029 106.82986001 70.51671696 102.98243046 C74.41909371 98.68981603 78.09328524 94.24358324 81.73937321 89.73243046 C84.30503776 86.6033441 86.97026629 83.57570898 89.67687321 80.56836796 C90.99827949 79.29595603 90.99827949 79.29595603 90.89171696 78.10743046 C34.13171696 77.77743046 -22.62828304 77.44743046 -81.10828304 77.10743046 C-79.99033599 72.63564225 -78.87503277 71.57343732 -75.60828304 68.48243046 C-72.44135142 65.60466022 -72.44135142 65.60466022 -70.10828304 62.10743046 C-69.44828304 62.10743046 -68.78828304 62.10743046 -68.10828304 62.10743046 C-67.84942318 61.52638554 -67.59056332 60.94534061 -67.32385921 60.34668827 C-66.01344128 57.93271894 -64.55981423 56.25745924 -62.65906429 54.27930546 C-61.63329281 53.20229374 -61.63329281 53.20229374 -60.58679867 52.10352421 C-59.87201351 51.36231327 -59.15722836 50.62110233 -58.42078304 49.85743046 C-53.79419973 45.0293185 -49.25223282 40.16764994 -44.87464046 35.11231327 C-41.06138875 30.78412764 -37.04340809 26.64264818 -33.06922054 22.46289921 C-26.99805772 16.05184503 -21.06453627 9.59741535 -15.85828304 2.45508671 C-11.68619874 -0.75779072 -5.05466539 -0.01424741 0 0 Z " fill="#0062EC" transform="translate(81.10828304290771,40.89256954193115)"/>
<path d="M0 0 C2.64258964 0.00112989 5.28513488 0.0006674 7.92771912 -0.00177002 C13.58989533 -0.00385488 19.25188541 0.0085626 24.91401482 0.03118134 C33.10020118 0.06386151 41.28629867 0.07412461 49.47254319 0.0791333 C62.7581135 0.08786102 76.04358488 0.11440762 89.32910156 0.15234375 C102.22525543 0.1891295 115.1213823 0.21740901 128.01757812 0.234375 C129.21243907 0.23595134 129.21243907 0.23595134 130.43143862 0.23755953 C134.42811003 0.24278015 138.42478163 0.24783487 142.42145336 0.25280714 C175.5128931 0.29419049 208.60421157 0.36456958 241.69555664 0.45410156 C240.23336371 3.50151825 238.73355227 5.69532781 236.38696289 8.14160156 C235.72712402 8.83495605 235.06728516 9.52831055 234.38745117 10.24267578 C233.33340088 11.33733154 233.33340088 11.33733154 232.25805664 12.45410156 C230.80827773 13.977006 229.35906198 15.50044674 227.91040039 17.02441406 C226.83894775 18.14831543 226.83894775 18.14831543 225.74584961 19.29492188 C222.91000822 22.2813688 220.10695428 25.29654894 217.32055664 28.32910156 C216.46719727 29.25464844 215.61383789 30.18019531 214.73461914 31.13378906 C212.58445087 33.47713488 212.58445087 33.47713488 210.69555664 36.45410156 C210.03555664 36.45410156 209.37555664 36.45410156 208.69555664 36.45410156 C208.42356445 37.04320312 208.15157227 37.63230469 207.87133789 38.23925781 C206.72001914 40.40802103 205.49571989 42.04916572 203.88305664 43.89160156 C203.40223633 44.4471875 202.92141602 45.00277344 202.42602539 45.57519531 C201.14527927 46.96580228 199.82651452 48.32160556 198.48852539 49.65722656 C194.85873661 53.29209197 191.34078307 57.02594974 187.82055664 60.76660156 C187.13864258 61.48783203 186.45672852 62.2090625 185.75415039 62.95214844 C181.80093392 67.15008783 177.9562182 71.40938828 174.23413086 75.81420898 C172.05376758 78.13815379 170.39602815 79.384499 167.1907692 79.70299053 C166.18496685 79.70244576 165.17916451 79.701901 164.1428833 79.70133972 C162.98772217 79.70553421 161.83256104 79.7097287 160.64239502 79.71405029 C159.37377625 79.70843079 158.10515747 79.70281128 156.7980957 79.69702148 C155.44942126 79.69809438 154.10074728 79.70003318 152.7520752 79.70277405 C149.08656506 79.70762617 145.42117648 79.69996064 141.75568104 79.689821 C137.9179123 79.68103872 134.08014735 79.68279804 130.24237061 79.68318176 C123.79282601 79.6822447 117.3433284 79.6735578 110.89379883 79.65991211 C103.4463273 79.64421279 95.99890734 79.63891309 88.55142045 79.63964766 C80.61664724 79.64032452 72.68189381 79.63337229 64.74712658 79.62420106 C62.46508648 79.62207395 60.1830496 79.62136043 57.90100861 79.62096214 C54.30592987 79.6199536 50.71089402 79.6138154 47.11582947 79.60379601 C45.17416829 79.5995057 43.23249831 79.60004045 41.29083252 79.60073853 C40.12439209 79.59647354 38.95795166 79.59220856 37.75616455 79.58781433 C36.7488541 79.58613849 35.74154366 79.58446264 34.70370865 79.58273602 C31.31875191 79.43798866 28.04050879 78.98098732 24.69555664 78.45410156 C24.70477457 79.45593696 24.7139925 80.45777235 24.72348976 81.48996639 C24.94557952 105.87757934 25.10985769 130.265061 25.21367836 154.65347195 C25.26522132 166.44765115 25.33547947 178.24116196 25.44995117 190.03491211 C25.54968887 200.31556128 25.61415412 210.59572636 25.63644159 220.8768459 C25.64946827 226.31988367 25.68003373 231.7615367 25.75285721 237.20413017 C25.82089073 242.33041733 25.84164245 247.45475376 25.82663345 252.58144951 C25.82937779 254.4596315 25.84918205 256.33788073 25.88761139 258.21567154 C26.16262515 272.35075527 26.16262515 272.35075527 22.5336113 277.55369759 C19.39006625 280.46643182 16.33882505 282.7075425 12.43436623 284.48139095 C10.34059856 285.39638737 10.34059856 285.39638737 9.69555664 288.45410156 C8.37524414 289.78613281 8.37524414 289.78613281 6.57055664 291.26660156 C2.41021095 294.79320284 -1.57943389 298.47216279 -5.55444336 302.20410156 C-10.25468413 306.61185691 -14.97543308 310.99311479 -19.74194336 315.32910156 C-23.71397162 318.95550488 -27.55427625 322.66915854 -31.32373047 326.50415039 C-33.16315574 328.31500823 -35.05015646 330.0109447 -37.00756836 331.69238281 C-41.37456829 335.48700897 -45.59695467 339.42175807 -49.80444336 343.39160156 C-50.89499023 344.41737305 -50.89499023 344.41737305 -52.00756836 345.46386719 C-53.7743605 347.12604664 -55.53996384 348.78946796 -57.30444336 350.45410156 C-57.96444336 350.12410156 -58.62444336 349.79410156 -59.30444336 349.45410156 C-59.30444336 260.35410156 -59.30444336 171.25410156 -59.30444336 79.45410156 C-68.87444336 79.45410156 -78.44444336 79.45410156 -88.30444336 79.45410156 C-88.96444336 78.79410156 -89.62444336 78.13410156 -90.30444336 77.45410156 C-90.05714423 74.44730609 -89.69076215 71.60559927 -89.17944336 68.64160156 C-89.03474609 67.78155518 -88.89004883 66.92150879 -88.7409668 66.03540039 C-85.0175695 44.88674093 -76.43216905 26.18728025 -58.53100586 13.52050781 C-39.40093203 1.268923 -22.20689024 -0.13348711 0 0 Z " fill="#053AA0" transform="translate(329.304443359375,122.5458984375)"/>
<path d="M0 0 C2.64258964 0.00112989 5.28513488 0.0006674 7.92771912 -0.00177002 C13.58989533 -0.00385488 19.25188541 0.0085626 24.91401482 0.03118134 C33.10020118 0.06386151 41.28629867 0.07412461 49.47254319 0.0791333 C62.7581135 0.08786102 76.04358488 0.11440762 89.32910156 0.15234375 C102.22525543 0.1891295 115.1213823 0.21740901 128.01757812 0.234375 C129.21243907 0.23595134 129.21243907 0.23595134 130.43143862 0.23755953 C134.42811003 0.24278015 138.42478163 0.24783487 142.42145336 0.25280714 C175.5128931 0.29419049 208.60421157 0.36456958 241.69555664 0.45410156 C240.23336371 3.50151825 238.73355227 5.69532781 236.38696289 8.14160156 C235.72712402 8.83495605 235.06728516 9.52831055 234.38745117 10.24267578 C233.33340088 11.33733154 233.33340088 11.33733154 232.25805664 12.45410156 C230.80827773 13.977006 229.35906198 15.50044674 227.91040039 17.02441406 C226.83894775 18.14831543 226.83894775 18.14831543 225.74584961 19.29492188 C222.91000822 22.2813688 220.10695428 25.29654894 217.32055664 28.32910156 C216.46719727 29.25464844 215.61383789 30.18019531 214.73461914 31.13378906 C212.58445087 33.47713488 212.58445087 33.47713488 210.69555664 36.45410156 C210.03555664 36.45410156 209.37555664 36.45410156 208.69555664 36.45410156 C208.42356445 37.04320312 208.15157227 37.63230469 207.87133789 38.23925781 C204.9589485 43.72538667 200.10026338 48.15682669 195.69555664 52.45410156 C194.42339329 53.72360348 193.15261468 54.99449421 191.88305664 56.26660156 C190.82055664 57.32910156 189.75805664 58.39160156 188.69555664 59.45410156 C188.03555664 59.12410156 187.37555664 58.79410156 186.69555664 58.45410156 C187.35555664 57.13410156 188.01555664 55.81410156 188.69555664 54.45410156 C189.68555664 54.45410156 190.67555664 54.45410156 191.69555664 54.45410156 C192.06680664 53.58785156 192.06680664 53.58785156 192.44555664 52.70410156 C193.86238981 50.15380186 195.57183201 48.43624455 197.69555664 46.45410156 C197.36555664 45.79410156 197.03555664 45.13410156 196.69555664 44.45410156 C197.84024414 43.86628906 197.84024414 43.86628906 199.00805664 43.26660156 C201.82045047 41.64567891 201.82045047 41.64567891 203.19555664 38.95410156 C204.69555664 36.45410156 204.69555664 36.45410156 207.25805664 34.95410156 C209.90059274 33.66179882 209.90059274 33.66179882 210.69555664 30.95410156 C212.00474502 27.68113062 213.64780345 27.08948132 216.69555664 25.45410156 C219.10434829 23.389423 219.65887217 22.56415497 220.69555664 19.45410156 C222.36743164 17.87597656 222.36743164 17.87597656 224.44555664 16.20410156 C228.30372928 12.92881831 231.0417405 9.76655279 233.69555664 5.45410156 C233.69555664 4.46410156 233.69555664 3.47410156 233.69555664 2.45410156 C232.91466266 2.61689889 232.13376867 2.77969622 231.32921124 2.9474268 C226.71244956 3.59118547 222.21228017 3.58190602 217.55708313 3.56089783 C216.02970301 3.56006277 216.02970301 3.56006277 214.47146672 3.55921084 C211.06086892 3.55617587 207.65032973 3.545993 204.23974609 3.53588867 C201.79368654 3.53233221 199.34762626 3.52924631 196.90156555 3.52659607 C191.63383901 3.52004506 186.36612981 3.51056778 181.09841347 3.4987011 C173.47025366 3.4816988 165.8420977 3.47216366 158.21392312 3.46482236 C145.821159 3.45288033 133.42840095 3.43793466 121.03564453 3.41967773 C120.29426926 3.41858761 119.55289399 3.41749749 118.78905281 3.41637433 C108.27580439 3.40077505 97.76256337 3.38218154 87.24932214 3.36237646 C86.50946283 3.36098315 85.76960351 3.35958983 85.00732422 3.3581543 C84.2683711 3.35676077 83.52941798 3.35536724 82.76807234 3.35393148 C70.42696834 3.33086037 58.08586911 3.31556765 45.74474686 3.30659491 C38.14068619 3.30075587 30.53669135 3.28842301 22.93265661 3.26762212 C17.0985519 3.25223587 11.26446756 3.24730943 5.43034172 3.24617958 C3.04352881 3.24403746 0.65671605 3.23846428 -1.73007965 3.22914886 C-4.99713872 3.21689477 -8.26397625 3.21712708 -11.53105164 3.22032166 C-12.46765474 3.21381385 -13.40425784 3.20730605 -14.36924285 3.20060104 C-24.6472016 3.23950708 -34.41276929 4.9151338 -43.61694336 9.64160156 C-45.30444336 10.45410156 -45.30444336 10.45410156 -48.30444336 10.45410156 C-48.63444336 11.11410156 -48.96444336 11.77410156 -49.30444336 12.45410156 C-50.18358398 12.88722656 -51.06272461 13.32035156 -51.96850586 13.76660156 C-68.2643334 22.00992416 -76.84047877 36.88335453 -82.43725586 53.58691406 C-84.17970421 59.00378252 -84.17970421 59.00378252 -83.30444336 64.45410156 C-84.29444336 65.44410156 -84.29444336 65.44410156 -85.30444336 66.45410156 C-85.30444336 69.42410156 -85.30444336 72.39410156 -85.30444336 75.45410156 C-75.07444336 75.78410156 -64.84444336 76.11410156 -54.30444336 76.45410156 C-54.30444336 77.11410156 -54.30444336 77.77410156 -54.30444336 78.45410156 C-10.74444336 77.95910156 -10.74444336 77.95910156 33.69555664 77.45410156 C33.69555664 77.78410156 33.69555664 78.11410156 33.69555664 78.45410156 C30.72555664 78.45410156 27.75555664 78.45410156 24.69555664 78.45410156 C24.70477457 79.45593696 24.7139925 80.45777235 24.72348976 81.48996639 C24.94557952 105.87757934 25.10985769 130.265061 25.21367836 154.65347195 C25.26522132 166.44765115 25.33547947 178.24116196 25.44995117 190.03491211 C25.54968887 200.31556128 25.61415412 210.59572636 25.63644159 220.8768459 C25.64946827 226.31988367 25.68003373 231.7615367 25.75285721 237.20413017 C25.82089073 242.33041733 25.84164245 247.45475376 25.82663345 252.58144951 C25.82937779 254.4596315 25.84918205 256.33788073 25.88761139 258.21567154 C26.16262515 272.35075527 26.16262515 272.35075527 22.5336113 277.55369759 C19.39006625 280.46643182 16.33882505 282.7075425 12.43436623 284.48139095 C10.34059856 285.39638737 10.34059856 285.39638737 9.69555664 288.45410156 C8.37524414 289.78613281 8.37524414 289.78613281 6.57055664 291.26660156 C2.41021095 294.79320284 -1.57943389 298.47216279 -5.55444336 302.20410156 C-10.25468413 306.61185691 -14.97543308 310.99311479 -19.74194336 315.32910156 C-23.71397162 318.95550488 -27.55427625 322.66915854 -31.32373047 326.50415039 C-33.16315574 328.31500823 -35.05015646 330.0109447 -37.00756836 331.69238281 C-41.37456829 335.48700897 -45.59695467 339.42175807 -49.80444336 343.39160156 C-50.89499023 344.41737305 -50.89499023 344.41737305 -52.00756836 345.46386719 C-53.7743605 347.12604664 -55.53996384 348.78946796 -57.30444336 350.45410156 C-57.96444336 350.12410156 -58.62444336 349.79410156 -59.30444336 349.45410156 C-59.30444336 260.35410156 -59.30444336 171.25410156 -59.30444336 79.45410156 C-68.87444336 79.45410156 -78.44444336 79.45410156 -88.30444336 79.45410156 C-88.96444336 78.79410156 -89.62444336 78.13410156 -90.30444336 77.45410156 C-90.05714423 74.44730609 -89.69076215 71.60559927 -89.17944336 68.64160156 C-89.03474609 67.78155518 -88.89004883 66.92150879 -88.7409668 66.03540039 C-85.0175695 44.88674093 -76.43216905 26.18728025 -58.53100586 13.52050781 C-39.40093203 1.268923 -22.20689024 -0.13348711 0 0 Z " fill="#04369A" transform="translate(329.304443359375,122.5458984375)"/>
<path d="M0 0 C2.56212284 -0.19574173 4.8643996 -0.20808769 7.4140625 -0.07421875 C8.14370209 -0.04777786 8.87334167 -0.02133698 9.62509155 0.00590515 C11.95921572 0.09379118 14.29180469 0.20289163 16.625 0.3125 C18.20567387 0.37574637 19.78640361 0.43761285 21.3671875 0.49804688 C25.24562163 0.64935062 29.12281059 0.81968764 33 1 C31.20477414 7.07770944 29.34019767 13.12089003 27.3125 19.125 C26.549375 21.39375 25.78625 23.6625 25 26 C34.9 26 44.8 26 55 26 C54.04220606 31.74676363 52.56930271 36.77423027 50.6875 42.25 C50.39166016 43.16007812 50.09582031 44.07015625 49.79101562 45.0078125 C49.34338867 46.31105469 49.34338867 46.31105469 48.88671875 47.640625 C48.62076904 48.42985352 48.35481934 49.21908203 48.08081055 50.03222656 C46.68171125 52.57949116 45.76414878 53.12332532 43 54 C39.97558594 54.13525391 39.97558594 54.13525391 36.484375 53.9765625 C35.23398437 53.925 33.98359375 53.8734375 32.6953125 53.8203125 C30.74238281 53.72363281 30.74238281 53.72363281 28.75 53.625 C27.43257812 53.56828125 26.11515625 53.5115625 24.7578125 53.453125 C21.50465594 53.31168341 18.25227448 53.16026986 15 53 C17.19520254 45.09370142 20.034843 37.7094082 23 30 C11.78 29.67 0.56 29.34 -11 29 C-10.2708 25.35400001 -9.51967291 22.43580696 -8.22265625 19.0234375 C-7.87396484 18.105625 -7.52527344 17.1878125 -7.16601562 16.2421875 C-6.80185547 15.29601563 -6.43769531 14.34984375 -6.0625 13.375 C-5.70220703 12.42109375 -5.34191406 11.4671875 -4.97070312 10.484375 C-3.52594148 6.70617696 -2.25296921 3.37945381 0 0 Z " fill="#0065FA" transform="translate(488,41)"/>
<path d="M0 0 C2.64258964 0.00112989 5.28513488 0.0006674 7.92771912 -0.00177002 C13.58989533 -0.00385488 19.25188541 0.0085626 24.91401482 0.03118134 C33.10020118 0.06386151 41.28629867 0.07412461 49.47254319 0.0791333 C62.7581135 0.08786102 76.04358488 0.11440762 89.32910156 0.15234375 C102.22525543 0.1891295 115.1213823 0.21740901 128.01757812 0.234375 C129.21243907 0.23595134 129.21243907 0.23595134 130.43143862 0.23755953 C134.42811003 0.24278015 138.42478163 0.24783487 142.42145336 0.25280714 C175.5128931 0.29419049 208.60421157 0.36456958 241.69555664 0.45410156 C240.23336371 3.50151825 238.73355227 5.69532781 236.38696289 8.14160156 C235.72712402 8.83495605 235.06728516 9.52831055 234.38745117 10.24267578 C233.33340088 11.33733154 233.33340088 11.33733154 232.25805664 12.45410156 C230.80827773 13.977006 229.35906198 15.50044674 227.91040039 17.02441406 C226.83894775 18.14831543 226.83894775 18.14831543 225.74584961 19.29492188 C222.91000822 22.2813688 220.10695428 25.29654894 217.32055664 28.32910156 C216.46719727 29.25464844 215.61383789 30.18019531 214.73461914 31.13378906 C212.58445087 33.47713488 212.58445087 33.47713488 210.69555664 36.45410156 C210.03555664 36.45410156 209.37555664 36.45410156 208.69555664 36.45410156 C208.42356445 37.04320312 208.15157227 37.63230469 207.87133789 38.23925781 C204.9589485 43.72538667 200.10026338 48.15682669 195.69555664 52.45410156 C194.42339329 53.72360348 193.15261468 54.99449421 191.88305664 56.26660156 C190.82055664 57.32910156 189.75805664 58.39160156 188.69555664 59.45410156 C188.03555664 59.12410156 187.37555664 58.79410156 186.69555664 58.45410156 C187.35555664 57.13410156 188.01555664 55.81410156 188.69555664 54.45410156 C189.68555664 54.45410156 190.67555664 54.45410156 191.69555664 54.45410156 C192.06680664 53.58785156 192.06680664 53.58785156 192.44555664 52.70410156 C193.86238981 50.15380186 195.57183201 48.43624455 197.69555664 46.45410156 C197.36555664 45.79410156 197.03555664 45.13410156 196.69555664 44.45410156 C197.84024414 43.86628906 197.84024414 43.86628906 199.00805664 43.26660156 C201.82045047 41.64567891 201.82045047 41.64567891 203.19555664 38.95410156 C204.69555664 36.45410156 204.69555664 36.45410156 207.25805664 34.95410156 C209.90059274 33.66179882 209.90059274 33.66179882 210.69555664 30.95410156 C212.00474502 27.68113062 213.64780345 27.08948132 216.69555664 25.45410156 C219.10434829 23.389423 219.65887217 22.56415497 220.69555664 19.45410156 C222.36743164 17.87597656 222.36743164 17.87597656 224.44555664 16.20410156 C228.30372928 12.92881831 231.0417405 9.76655279 233.69555664 5.45410156 C233.69555664 4.46410156 233.69555664 3.47410156 233.69555664 2.45410156 C232.91466266 2.61689889 232.13376867 2.77969622 231.32921124 2.9474268 C226.71244956 3.59118547 222.21228017 3.58190602 217.55708313 3.56089783 C216.02970301 3.56006277 216.02970301 3.56006277 214.47146672 3.55921084 C211.06086892 3.55617587 207.65032973 3.545993 204.23974609 3.53588867 C201.79368654 3.53233221 199.34762626 3.52924631 196.90156555 3.52659607 C191.63383901 3.52004506 186.36612981 3.51056778 181.09841347 3.4987011 C173.47025366 3.4816988 165.8420977 3.47216366 158.21392312 3.46482236 C145.821159 3.45288033 133.42840095 3.43793466 121.03564453 3.41967773 C120.29426926 3.41858761 119.55289399 3.41749749 118.78905281 3.41637433 C108.27580439 3.40077505 97.76256337 3.38218154 87.24932214 3.36237646 C86.50946283 3.36098315 85.76960351 3.35958983 85.00732422 3.3581543 C84.2683711 3.35676077 83.52941798 3.35536724 82.76807234 3.35393148 C70.42696834 3.33086037 58.08586911 3.31556765 45.74474686 3.30659491 C38.14068619 3.30075587 30.53669135 3.28842301 22.93265661 3.26762212 C17.0985519 3.25223587 11.26446756 3.24730943 5.43034172 3.24617958 C3.04352881 3.24403746 0.65671605 3.23846428 -1.73007965 3.22914886 C-4.99713872 3.21689477 -8.26397625 3.21712708 -11.53105164 3.22032166 C-12.46765474 3.21381385 -13.40425784 3.20730605 -14.36924285 3.20060104 C-24.6472016 3.23950708 -34.41276929 4.9151338 -43.61694336 9.64160156 C-45.30444336 10.45410156 -45.30444336 10.45410156 -48.30444336 10.45410156 C-48.63444336 11.11410156 -48.96444336 11.77410156 -49.30444336 12.45410156 C-50.18358398 12.88722656 -51.06272461 13.32035156 -51.96850586 13.76660156 C-68.2643334 22.00992416 -76.84047877 36.88335453 -82.43725586 53.58691406 C-84.17970421 59.00378252 -84.17970421 59.00378252 -83.30444336 64.45410156 C-84.29444336 65.44410156 -84.29444336 65.44410156 -85.30444336 66.45410156 C-85.30444336 69.42410156 -85.30444336 72.39410156 -85.30444336 75.45410156 C-75.07444336 75.78410156 -64.84444336 76.11410156 -54.30444336 76.45410156 C-54.63444336 77.11410156 -54.96444336 77.77410156 -55.30444336 78.45410156 C-55.32511114 80.68326977 -55.29550477 82.91298109 -55.24194336 85.14160156 C-55.12536306 93.06226155 -56.06252519 100.63667022 -57.30444336 108.45410156 C-57.63444336 108.45410156 -57.96444336 108.45410156 -58.30444336 108.45410156 C-58.63444336 98.88410156 -58.96444336 89.31410156 -59.30444336 79.45410156 C-68.7584151 79.53323331 -68.7584151 79.53323331 -78.2121582 79.63427734 C-79.38472168 79.63927246 -80.55728516 79.64426758 -81.76538086 79.64941406 C-82.96984863 79.6598877 -84.17431641 79.67036133 -85.4152832 79.68115234 C-88.30444336 79.45410156 -88.30444336 79.45410156 -90.30444336 77.45410156 C-90.05714423 74.44730609 -89.69076215 71.60559927 -89.17944336 68.64160156 C-89.03474609 67.78155518 -88.89004883 66.92150879 -88.7409668 66.03540039 C-85.0175695 44.88674093 -76.43216905 26.18728025 -58.53100586 13.52050781 C-39.40093203 1.268923 -22.20689024 -0.13348711 0 0 Z " fill="#0B2C8C" transform="translate(329.304443359375,122.5458984375)"/>
<path d="M0 0 C0.33 0 0.66 0 1 0 C1.17723031 25.99033744 1.34290489 51.98072623 1.49477577 77.97122478 C1.56556027 90.03871997 1.64014384 102.10616946 1.72363281 114.17358398 C1.79638159 124.69000711 1.86204123 135.20644634 1.91914403 145.72296649 C1.9496357 151.29274979 1.98370701 156.86245988 2.02626419 162.43216515 C2.06619517 167.6728113 2.09665864 172.91342659 2.11981392 178.1541729 C2.12999639 180.07910078 2.14365867 182.00401384 2.16103554 183.92889023 C2.18422214 186.55462789 2.19494994 189.18013167 2.20254517 191.80595398 C2.21712011 192.95139216 2.21712011 192.95139216 2.2319895 194.1199705 C2.2279493 199.84472668 1.46005349 203.3334743 -2.3203125 207.6484375 C-3.24585938 208.54820312 -4.17140625 209.44796875 -5.125 210.375 C-5.86423706 211.09780151 -5.86423706 211.09780151 -6.6184082 211.83520508 C-10.00101466 215.11669057 -13.49140795 218.24669603 -17.08203125 221.296875 C-19.9884851 223.87775866 -22.65612913 226.68282879 -25.3359375 229.49609375 C-27 231 -27 231 -29 231 C-29 231.66 -29 232.32 -29 233 C-30.57421875 234.55078125 -30.57421875 234.55078125 -32.6875 236.3125 C-35.19802294 238.43644684 -37.60823421 240.55501344 -39.875 242.9375 C-42 245 -42 245 -44 245 C-44 245.66 -44 246.32 -44 247 C-45.44458008 248.4387207 -45.44458008 248.4387207 -47.45703125 250.11328125 C-52.79390457 254.65097513 -57.83709535 259.47247077 -62.90820312 264.30273438 C-66.49409069 267.70108229 -70.06721178 270.99804923 -74 274 C-74.74229544 270.70706463 -75.10935869 267.72519368 -75.03065491 264.35322571 C-75.01235437 263.43759417 -74.99405384 262.52196262 -74.97519875 261.57858467 C-74.9499481 260.57465612 -74.92469746 259.57072758 -74.89868164 258.53637695 C-74.85254592 256.27394494 -74.80661371 254.01150877 -74.760849 251.74906921 C-74.73422621 250.52571051 -74.70760342 249.3023518 -74.68017387 248.04192162 C-74.53349544 241.16970004 -74.41066396 234.29709348 -74.29345703 227.42431641 C-74.27416045 226.29673709 -74.27416045 226.29673709 -74.25447404 225.1463784 C-73.89915789 204.03002898 -73.79428506 182.91175389 -73.68359375 161.79296875 C-73.67824757 160.78874579 -73.67290139 159.78452283 -73.66739321 158.74986887 C-73.60159165 146.38528618 -73.54077168 134.02068295 -73.48259223 121.65606225 C-73.43217508 110.97297961 -73.3776615 100.28991886 -73.32291877 89.60685766 C-73.21094271 67.73792561 -73.10374688 45.86897254 -73 24 C-72.67 24 -72.34 24 -72 24 C-72 77.46 -72 130.92 -72 186 C-71.34 186 -70.68 186 -70 186 C-69.80105362 232.61466765 -69.80105362 232.61466765 -70.90625 254.70996094 C-71.03317577 257.81038718 -71.03418766 260.89746942 -71 264 C-66.60357652 263.4975516 -64.2051018 262.02704059 -61 259 C-60.67 258.01 -60.34 257.02 -60 256 C-59.01 256 -58.02 256 -57 256 C-56.34 254.35 -55.68 252.7 -55 251 C-54.01 251 -53.02 251 -52 251 C-52 250.34 -52 249.68 -52 249 C-51.34 249 -50.68 249 -50 249 C-49.7525 248.38125 -49.505 247.7625 -49.25 247.125 C-47.77229238 244.61289704 -46.56044823 244.23892656 -44 243 C-43.67 242.01 -43.34 241.02 -43 240 C-41.55619121 238.75307423 -40.10678034 237.51117626 -38.61328125 236.32421875 C-36.77911879 234.8627684 -36.77911879 234.8627684 -34.4375 232.4375 C-32 230 -32 230 -29.25 227.8125 C-26.92512612 226.19690923 -26.92512612 226.19690923 -26 224 C-25.01 224 -24.02 224 -23 224 C-22.835 223.319375 -22.67 222.63875 -22.5 221.9375 C-19.93361266 216.91165812 -15.37078028 212.79026009 -10 211 C-8.66471476 209.43518515 -8.66471476 209.43518515 -7.5 207.5625 C-5.74022333 204.86079158 -4.8009287 203.8672858 -2 202 C-1.55524879 200.11884419 -1.55524879 200.11884419 -1.63923645 197.92514038 C-1.63511246 197.07256149 -1.63098846 196.2199826 -1.6267395 195.34156799 C-1.63752533 194.40433395 -1.64831116 193.46709991 -1.65942383 192.50146484 C-1.65898575 191.51606216 -1.65854767 190.53065948 -1.65809631 189.51539612 C-1.66019211 186.24704408 -1.68356065 182.9792003 -1.70703125 179.7109375 C-1.71262438 177.44935384 -1.71689581 175.18776656 -1.71989441 172.92617798 C-1.73136539 166.96498634 -1.76085204 161.00401294 -1.79400635 155.04290771 C-1.82465867 148.96353101 -1.83838939 142.88411915 -1.85351562 136.8046875 C-1.88571951 124.86969562 -1.93694309 112.93486594 -2 101 C-1.34 101 -0.68 101 0 101 C0 67.67 0 34.34 0 0 Z " fill="#031A92" transform="translate(223,191)"/>
<path d="M0 0 C16.335 0.495 16.335 0.495 33 1 C31.20580616 6.98064614 29.43251328 12.78063906 27.3125 18.625 C26.87550781 19.83414063 26.43851563 21.04328125 25.98828125 22.2890625 C25.66214844 23.18367188 25.33601562 24.07828125 25 25 C24.34 25 23.68 25 23 25 C22.67 25.66 22.34 26.32 22 27 C12.1 27 2.2 27 -8 27 C-7.32074093 22.92444558 -6.7889101 20.02912141 -5.37109375 16.328125 C-5.05849609 15.49925781 -4.74589844 14.67039062 -4.42382812 13.81640625 C-4.09833984 12.96949219 -3.77285156 12.12257813 -3.4375 11.25 C-2.78747439 9.54797599 -2.14019728 7.84489894 -1.49609375 6.140625 C-1.20919678 5.39329102 -0.9222998 4.64595703 -0.62670898 3.87597656 C0.10561907 2.01349072 0.10561907 2.01349072 0 0 Z " fill="#006AFD" transform="translate(488,41)"/>
<path d="M0 0 C1.20970459 0.00523682 2.41940918 0.01047363 3.66577148 0.01586914 C4.97094727 0.0190918 6.27612305 0.02231445 7.62084961 0.02563477 C9.00952213 0.03399138 10.39819401 0.04245634 11.78686523 0.05102539 C13.17944179 0.05603873 14.57202005 0.06060193 15.96459961 0.06469727 C19.38456394 0.07653105 22.80444367 0.09301659 26.22436523 0.11352539 C25.81444336 1.19891602 25.40452148 2.28430664 24.98217773 3.40258789 C24.43784766 4.84787808 23.89358015 6.29319183 23.34936523 7.73852539 C23.07995117 8.45137695 22.81053711 9.16422852 22.53295898 9.89868164 C22.26870117 10.6012207 22.00444336 11.30375977 21.73217773 12.02758789 C21.49128418 12.66647949 21.25039063 13.30537109 21.00219727 13.96362305 C20.02574209 16.66251328 19.1319705 19.39070959 18.22436523 22.11352539 C8.32436523 22.11352539 -1.57563477 22.11352539 -11.77563477 22.11352539 C-10.00249264 16.794099 -8.30523099 11.74225751 -6.15063477 6.61352539 C-5.51254883 5.08211914 -5.51254883 5.08211914 -4.86157227 3.51977539 C-3.33465469 0.13638969 -3.33465469 0.13638969 0 0 Z " fill="#0069FB" transform="translate(446.775634765625,89.886474609375)"/>
<path d="M0 0 C-1.30781391 3.81412396 -2.62203015 7.62601043 -3.9375 11.4375 C-4.31068359 12.52611328 -4.68386719 13.61472656 -5.06835938 14.73632812 C-5.42607422 15.77080078 -5.78378906 16.80527344 -6.15234375 17.87109375 C-6.48226318 18.82943115 -6.81218262 19.78776855 -7.15209961 20.77514648 C-8 23 -8 23 -9 24 C-10.85174706 24.15786308 -12.7090911 24.25107356 -14.56640625 24.31640625 C-15.69111328 24.35830078 -16.81582031 24.40019531 -17.97460938 24.44335938 C-19.15861328 24.48267578 -20.34261719 24.52199219 -21.5625 24.5625 C-22.75037109 24.60568359 -23.93824219 24.64886719 -25.16210938 24.69335938 C-28.10794784 24.79983546 -31.0538743 24.90184841 -34 25 C-35 23 -35 23 -34.41088867 20.87695312 C-34.0832251 20.02037109 -33.75556152 19.16378906 -33.41796875 18.28125 C-33.06283203 17.34925781 -32.70769531 16.41726562 -32.34179688 15.45703125 C-31.96087891 14.48121094 -31.57996094 13.50539063 -31.1875 12.5 C-30.81818359 11.52417969 -30.44886719 10.54835938 -30.06835938 9.54296875 C-27.26480772 2.26480772 -27.26480772 2.26480772 -25 0 C-16.78003306 -1.75054852 -8.27996456 -0.78569007 0 0 Z " fill="#0068FB" transform="translate(570,32)"/>
<path d="M0 0 C0.33 0 0.66 0 1 0 C1.18574728 8.74491664 1.327698 17.48914969 1.41449738 26.23561192 C1.45616794 30.29751551 1.51263846 34.35806514 1.60351562 38.41918945 C1.69074554 42.34208814 1.73833528 46.26368887 1.75901794 50.18748283 C1.7737468 51.68071867 1.80251196 53.1738871 1.84584045 54.66656685 C2.17175585 66.36475853 2.17175585 66.36475853 -0.72875977 70.41256714 C-2.73459812 72.17364614 -4.74990872 73.57410294 -7 75 C-7.80866516 75.82649803 -7.80866516 75.82649803 -8.63366699 76.66969299 C-10 78 -10 78 -12 78 C-12.495 79.485 -12.495 79.485 -13 81 C-14.3203125 82.33203125 -14.3203125 82.33203125 -16.125 83.8125 C-20.28534569 87.33910128 -24.27499053 91.01806123 -28.25 94.75 C-32.95024077 99.15775534 -37.67098972 103.53901323 -42.4375 107.875 C-46.40952826 111.50140331 -50.24983289 115.21505698 -54.01928711 119.05004883 C-55.85871238 120.86090667 -57.7457131 122.55684314 -59.703125 124.23828125 C-64.07012493 128.03290741 -68.29251131 131.96765651 -72.5 135.9375 C-73.22703125 136.62134766 -73.9540625 137.30519531 -74.703125 138.00976562 C-76.46991714 139.67194507 -78.23552048 141.33536639 -80 143 C-80.66 142.67 -81.32 142.34 -82 142 C-81.67 112.63 -81.34 83.26 -81 53 C-80.34 53 -79.68 53 -79 53 C-78.98969254 53.58802399 -78.97938507 54.17604797 -78.96876526 54.78189087 C-78.86040168 60.91410776 -78.74582892 67.04618655 -78.62768555 73.17822266 C-78.58443223 75.46530258 -78.54275053 77.75241279 -78.50268555 80.03955078 C-78.44475001 83.33114746 -78.3811229 86.62259301 -78.31640625 89.9140625 C-78.29969376 90.93303619 -78.28298126 91.95200989 -78.26576233 93.00186157 C-78.16652926 97.78083196 -77.87370489 102.288251 -77 107 C-77.375 109.5 -77.375 109.5 -78 112 C-78.33944795 113.99897128 -78.67421616 115.99875639 -79 118 C-78.34 118.33 -77.68 118.66 -77 119 C-77.165 119.969375 -77.33 120.93875 -77.5 121.9375 C-78.13396273 126.29487763 -78.0896672 130.60630704 -78 135 C-76.01508358 134.73323796 -76.01508358 134.73323796 -74 134 C-73.67 133.01 -73.34 132.02 -73 131 C-71.515 130.01 -71.515 130.01 -70 129 C-67.3485108 126.97649508 -64.92278258 124.92278258 -62.5625 122.5625 C-60.66530535 120.66530535 -58.82175984 118.99364164 -56.75 117.3125 C-53.98257806 115.2957678 -53.98257806 115.2957678 -53 113 C-52.34 113 -51.68 113 -51 113 C-50.7525 112.38125 -50.505 111.7625 -50.25 111.125 C-48.79371361 108.64931313 -47.62187494 108.04874998 -45 107 C-45 106.34 -45 105.68 -45 105 C-44.34 105 -43.68 105 -43 105 C-42.71125 104.38125 -42.4225 103.7625 -42.125 103.125 C-41 101 -41 101 -39 99 C-38.01 99 -37.02 99 -36 99 C-35.505 97.515 -35.505 97.515 -35 96 C-29.53488372 91 -29.53488372 91 -27 91 C-27 90.34 -27 89.68 -27 89 C-25.38161281 87.28641357 -23.70328319 85.6292274 -22 84 C-21.50757813 83.48695313 -21.01515625 82.97390625 -20.5078125 82.4453125 C-17.53075188 79.3448504 -14.71950902 77.1935566 -11 75 C-9.29115995 73.37660195 -7.62553283 71.70680947 -6 70 C-5.13703812 69.25563187 -4.27407623 68.51126373 -3.38496399 67.74433899 C-0.46958248 64.38965724 -0.36613326 62.85287603 -0.34057617 58.46557617 C-0.31111153 56.51411934 -0.31111153 56.51411934 -0.28105164 54.52323914 C-0.2844946 53.11314762 -0.28847959 51.70305733 -0.29296875 50.29296875 C-0.27984698 48.8427778 -0.26454126 47.3926051 -0.24714661 45.94245911 C-0.20733846 42.13658993 -0.19710899 38.33119929 -0.19311523 34.52514648 C-0.1837757 30.63705975 -0.14635717 26.74925326 -0.11132812 22.86132812 C-0.0467952 15.24088297 -0.01352014 7.62072455 0 0 Z " fill="#040F50" transform="translate(352,330)"/>
<path d="M0 0 C0.98291016 0.00322266 1.96582031 0.00644531 2.97851562 0.00976562 C4.51475586 0.02233398 4.51475586 0.02233398 6.08203125 0.03515625 C7.63567383 0.04192383 7.63567383 0.04192383 9.22070312 0.04882812 C11.77870391 0.06061615 14.33658858 0.0770711 16.89453125 0.09765625 C16.32419498 3.20087742 15.62965545 6.09791057 14.51953125 9.05078125 C14.2565625 9.75203125 13.99359375 10.45328125 13.72265625 11.17578125 C13.449375 11.8925 13.17609375 12.60921875 12.89453125 13.34765625 C12.62125 14.07984375 12.34796875 14.81203125 12.06640625 15.56640625 C10.02678571 20.96540179 10.02678571 20.96540179 8.89453125 22.09765625 C7.11583399 22.2553003 5.33134649 22.34866302 3.546875 22.4140625 C2.46728516 22.45595703 1.38769531 22.49785156 0.27539062 22.54101562 C-0.86091797 22.58033203 -1.99722656 22.61964844 -3.16796875 22.66015625 C-4.87823242 22.72493164 -4.87823242 22.72493164 -6.62304688 22.79101562 C-9.4503907 22.89748464 -12.27782613 22.99949832 -15.10546875 23.09765625 C-14.21625899 18.33929456 -12.80913685 13.91424252 -11.23046875 9.34765625 C-10.97394531 8.56777344 -10.71742188 7.78789062 -10.453125 6.984375 C-9.76221422 4.98802477 -8.94215325 3.03743226 -8.10546875 1.09765625 C-5.10530963 0.09760321 -3.13123119 -0.0180996 0 0 Z " fill="#0068FC" transform="translate(524.10546875,4.90234375)"/>
<path d="M0 0 C0.99 0.99 0.99 0.99 2 2 C1.29875 2.10957031 0.5975 2.21914062 -0.125 2.33203125 C-6.98560603 3.47857275 -13.08681613 4.9905272 -19.3125 8.1875 C-21 9 -21 9 -24 9 C-24.33 9.66 -24.66 10.32 -25 11 C-25.87914062 11.433125 -26.75828125 11.86625 -27.6640625 12.3125 C-43.95989004 20.5558226 -52.53603541 35.42925297 -58.1328125 52.1328125 C-59.87526085 57.54968096 -59.87526085 57.54968096 -59 63 C-59.99 63.99 -59.99 63.99 -61 65 C-61 67.97 -61 70.94 -61 74 C-50.77 74.33 -40.54 74.66 -30 75 C-30.33 75.66 -30.66 76.32 -31 77 C-31.02066778 79.22916821 -30.99106141 81.45887952 -30.9375 83.6875 C-30.8209197 91.60815999 -31.75808183 99.18256866 -33 107 C-33.33 107 -33.66 107 -34 107 C-34.33 97.43 -34.66 87.86 -35 78 C-44.45397174 78.07913175 -44.45397174 78.07913175 -53.90771484 78.18017578 C-55.08027832 78.1851709 -56.2528418 78.19016602 -57.4609375 78.1953125 C-58.66540527 78.20578613 -59.86987305 78.21625977 -61.11083984 78.22705078 C-64 78 -64 78 -66 76 C-65.75270087 72.99320453 -65.38631879 70.15149771 -64.875 67.1875 C-64.73030273 66.32745361 -64.58560547 65.46740723 -64.43652344 64.58129883 C-60.71167111 43.42437488 -52.12401184 24.76504276 -34.2421875 12.0703125 C-24.47854015 5.83569432 -11.99855278 -1.538276 0 0 Z " fill="#06165D" transform="translate(305,124)"/>
<path d="M0 0 C0 0.33 0 0.66 0 1 C-2.97 1 -5.94 1 -9 1 C-9 65.68 -9 130.36 -9 197 C-9.33 197 -9.66 197 -10 197 C-10.19151576 188.47962692 -10.35284993 179.95874244 -10.5 171.4375 C-10.51187725 170.7504385 -10.5237545 170.063377 -10.53599167 169.35549545 C-11.14204392 133.67703838 -11.0838349 97.9948257 -11.0625 62.3125 C-11.06186365 61.21714251 -11.06186365 61.21714251 -11.06121445 60.09965658 C-11.04997272 41.06642165 -11.02631726 22.03322536 -11 3 C-36.08 2.67 -61.16 2.34 -87 2 C-87 1.67 -87 1.34 -87 1 C-77.28081995 0.86874884 -67.56162954 0.73829971 -57.84242535 0.60884857 C-53.32845729 0.54870189 -48.81449315 0.48828848 -44.30053711 0.42724609 C-39.93686059 0.36824608 -35.5731749 0.30997205 -31.20948219 0.25218201 C-29.55229159 0.23011133 -27.89510434 0.20778777 -26.23792076 0.18519592 C-17.49172742 0.06613052 -8.74726012 -0.03770725 0 0 Z " fill="#0D2F8B" transform="translate(363,200)"/>
<path d="M0 0 C7.59 0 15.18 0 23 0 C23 6 23 6 19 16 C11.08 16.33 3.16 16.66 -5 17 C-3 8 -3 8 0 0 Z " fill="#0069FB" transform="translate(557,0)"/>
<path d="M0 0 C0.66 0.66 1.32 1.32 2 2 C1.76289307 2.58491211 1.52578613 3.16982422 1.28149414 3.77246094 C0.20576606 6.43054521 -0.86590524 9.09024686 -1.9375 11.75 C-2.31068359 12.67039062 -2.68386719 13.59078125 -3.06835938 14.5390625 C-3.60493164 15.87324219 -3.60493164 15.87324219 -4.15234375 17.234375 C-4.48226318 18.05131836 -4.81218262 18.86826172 -5.15209961 19.70996094 C-6.13989331 22.2495872 -6.13989331 22.2495872 -7 26 C2.9 26 12.8 26 23 26 C23.66 24.68 24.32 23.36 25 22 C25.66 22.99 26.32 23.98 27 25 C29.56832129 25.40062481 29.56832129 25.40062481 32.55859375 25.2578125 C33.66654297 25.24363281 34.77449219 25.22945312 35.91601562 25.21484375 C37.65915039 25.17037109 37.65915039 25.17037109 39.4375 25.125 C41.72778776 25.08166679 44.01815745 25.04241526 46.30859375 25.0078125 C47.32751709 24.98348145 48.34644043 24.95915039 49.39624023 24.93408203 C52 25 52 25 55 26 C54.67 26.66 54.34 27.32 54 28 C45.09 28 36.18 28 27 28 C24.36 35.26 21.72 42.52 19 50 C27.91 49.67 36.82 49.34 46 49 C46.99 46.03 47.98 43.06 49 40 C49.71967394 37.97576661 50.44716697 35.9542693 51.1875 33.9375 C51.53167969 32.99777344 51.87585938 32.05804688 52.23046875 31.08984375 C52.61138672 30.05537109 52.61138672 30.05537109 53 29 C53.66 29 54.32 29 55 29 C54.02433206 32.34092355 53.01354563 35.67039478 52 39 C51.68675781 40.07765625 51.37351562 41.1553125 51.05078125 42.265625 C50.72464844 43.33296875 50.39851562 44.4003125 50.0625 45.5 C49.76472656 46.5003125 49.46695313 47.500625 49.16015625 48.53125 C47.74926229 51.53355634 47.07224538 51.8890699 44 53 C40.97558594 53.13525391 40.97558594 53.13525391 37.484375 52.9765625 C36.23398437 52.925 34.98359375 52.8734375 33.6953125 52.8203125 C31.74238281 52.72363281 31.74238281 52.72363281 29.75 52.625 C28.43257812 52.56828125 27.11515625 52.5115625 25.7578125 52.453125 C22.50465594 52.31168341 19.25227448 52.16026986 16 52 C18.19520254 44.09370142 21.034843 36.7094082 24 29 C12.78 28.67 1.56 28.34 -10 28 C-9.26567253 24.32836267 -8.50716236 21.41789183 -7.1875 17.98828125 C-6.83429688 17.06595703 -6.48109375 16.14363281 -6.1171875 15.19335938 C-5.74851562 14.24267578 -5.37984375 13.29199219 -5 12.3125 C-4.63132812 11.35021484 -4.26265625 10.38792969 -3.8828125 9.39648438 C-1.16636588 2.33273176 -1.16636588 2.33273176 0 0 Z " fill="#0344E3" transform="translate(487,42)"/>
<path d="M0 0 C0.66 0 1.32 0 2 0 C0.65705315 2.98577503 -0.8503686 5.03689051 -3.125 7.375 C-19.25964901 25.52648013 -22.29296373 48.03122033 -22.31884766 71.35449219 C-22.32816103 73.28727633 -22.33833176 75.22005651 -22.34928894 77.15283203 C-22.37644423 82.36682278 -22.39169517 87.58078674 -22.40471697 92.79482937 C-22.42041122 98.25609323 -22.4471812 103.71730287 -22.4727478 109.17852783 C-22.51942458 119.50540376 -22.55622225 129.83229002 -22.58942068 140.15921712 C-22.62772074 151.92230403 -22.67711013 163.68533634 -22.72740483 175.44837713 C-22.83055948 199.63221089 -22.91987317 223.81607976 -23 248 C-23.33 248 -23.66 248 -24 248 C-24.0935603 221.6262582 -24.16403654 195.25254138 -24.20724869 168.87866688 C-24.2278487 156.63202672 -24.25592036 144.38548986 -24.30175781 132.13891602 C-24.34170394 121.46123438 -24.36745142 110.78362757 -24.37635398 100.10587329 C-24.38155553 94.45530759 -24.39372775 88.80495591 -24.42292023 83.154459 C-24.45021216 77.82832495 -24.45841723 72.50249167 -24.45243073 67.17629433 C-24.45352482 65.22893129 -24.46139608 63.28155746 -24.4768219 61.33425522 C-24.55868677 50.46007574 -24.12413081 41.21198056 -20 31 C-19.68592319 30.21876676 -19.37184639 29.43753351 -19.04825211 28.63262653 C-18.24954399 26.73087141 -17.37335195 24.90033027 -16.4375 23.0625 C-16.10741943 22.40499756 -15.77733887 21.74749512 -15.43725586 21.07006836 C-11.44027877 13.45456399 -6.09422308 6.09422308 0 0 Z " fill="#0A5FDB" transform="translate(248,136)"/>
<path d="M0 0 C0.33 0 0.66 0 1 0 C1.02387634 16.62686931 1.04123679 33.25373268 1.05181217 49.88061523 C1.05686357 57.60921825 1.06370655 65.33781025 1.07543945 73.06640625 C1.13841797 115.38847142 0.81669888 157.68526007 0 200 C-0.66 199.67 -1.32 199.34 -2 199 C-2 166.66 -2 134.32 -2 101 C-1.34 101 -0.68 101 0 101 C0 67.67 0 34.34 0 0 Z " fill="#0328B5" transform="translate(223,191)"/>
<path d="M0 0 C0.66 0.33 1.32 0.66 2 1 C1.32795532 1.70962891 1.32795532 1.70962891 0.64233398 2.43359375 C-1.42748955 4.62093913 -3.4950023 6.81045618 -5.5625 9 C-6.26697266 9.74378906 -6.97144531 10.48757812 -7.69726562 11.25390625 C-12.24756929 16.07680875 -16.65904367 20.98776177 -21 26 C-23.31 28.64 -25.62 31.28 -28 34 C56.645 34.495 56.645 34.495 143 35 C143 35.33 143 35.66 143 36 C85.58 36 28.16 36 -31 36 C-29.92550708 31.70202831 -29.11135143 30.79744795 -26 27.875 C-23.10714412 25.22939276 -23.10714412 25.22939276 -21 22 C-20.34 22 -19.68 22 -19 22 C-18.61823608 21.13604614 -18.61823608 21.13604614 -18.22875977 20.25463867 C-16.86454 17.75144584 -15.3064841 15.98698327 -13.33984375 13.92578125 C-12.62892578 13.17619141 -11.91800781 12.42660156 -11.18554688 11.65429688 C-10.44369141 10.88150391 -9.70183594 10.10871094 -8.9375 9.3125 C-8.19177734 8.52810547 -7.44605469 7.74371094 -6.67773438 6.93554688 C-1.60895647 1.60895647 -1.60895647 1.60895647 0 0 Z " fill="#033CDE" transform="translate(32,81)"/>
<path d="M0 0 C0 4.28851973 -2.52644716 6.26504263 -5.25 9.3125 C-6.35562351 10.57538536 -7.46108779 11.83841014 -8.56640625 13.1015625 C-9.13633301 13.74770508 -9.70625977 14.39384766 -10.29345703 15.05957031 C-12.9502192 18.08044952 -15.56992287 21.1326714 -18.1875 24.1875 C-18.93797607 25.06075928 -18.93797607 25.06075928 -19.70361328 25.95166016 C-22.73349136 29.48668365 -25.69813034 33.06620607 -28.625 36.6875 C-33.23229794 42.28207607 -38.12479374 47.63727312 -43 53 C-25.51 53.33 -8.02 53.66 10 54 C10 54.66 10 55.32 10 56 C-18.71 56.495 -18.71 56.495 -48 57 C-48.33 56.34 -48.66 55.68 -49 55 C-47.71034824 53.62437146 -46.37310707 52.29233607 -45 51 C-44.34 51 -43.68 51 -43 51 C-42.76410156 50.44441406 -42.52820313 49.88882813 -42.28515625 49.31640625 C-40.6872248 46.43624409 -38.694995 44.33630924 -36.4375 41.9375 C-32.15855895 37.31378097 -28.13531607 32.5581678 -24.1796875 27.65234375 C-21.39752613 24.26688216 -18.48251102 21.01553292 -15.53125 17.77734375 C-13.93160961 16.06737572 -13.93160961 16.06737572 -13 14 C-12.34 14 -11.68 14 -11 14 C-10.7421875 13.42507812 -10.484375 12.85015625 -10.21875 12.2578125 C-8.89241701 9.80069562 -7.36278363 7.95089871 -5.5 5.875 C-4.8915625 5.19179687 -4.283125 4.50859375 -3.65625 3.8046875 C-2.46695076 2.50880012 -1.24373566 1.24373566 0 0 Z " fill="#042FC5" transform="translate(138,160)"/>
<path d="M0 0 C0.33 0 0.66 0 1 0 C0.99777939 0.77372452 0.99555878 1.54744904 0.99327087 2.34461975 C0.97318689 9.65636244 0.95798462 16.96809164 0.94818783 24.27985477 C0.94298181 28.03838852 0.9359258 31.79689936 0.92456055 35.55541992 C0.91365033 39.18641318 0.907706 42.81738448 0.90512276 46.44839287 C0.90328312 47.82978091 0.89969088 49.21116783 0.89426994 50.59254646 C0.88695151 52.53572531 0.88659102 54.47892651 0.88647461 56.42211914 C0.884254 57.52576309 0.88203339 58.62940704 0.87974548 59.76649475 C1.00871891 63.23444157 1.45346775 66.5750499 2 70 C-1.875 72 -1.875 72 -3 72 C-3 51.21 -3 30.42 -3 9 C-2.67 9 -2.34 9 -2 9 C-1.34 6.03 -0.68 3.06 0 0 Z " fill="#043FBD" transform="translate(273,263)"/>
<path d="M0 0 C1.20970459 0.00523682 2.41940918 0.01047363 3.66577148 0.01586914 C4.97094727 0.0190918 6.27612305 0.02231445 7.62084961 0.02563477 C9.00952213 0.03399138 10.39819401 0.04245634 11.78686523 0.05102539 C13.17944179 0.05603873 14.57202005 0.06060193 15.96459961 0.06469727 C19.38456394 0.07653105 22.80444367 0.09301659 26.22436523 0.11352539 C25.81444336 1.19891602 25.40452148 2.28430664 24.98217773 3.40258789 C24.43784766 4.84787808 23.89358015 6.29319183 23.34936523 7.73852539 C23.07995117 8.45137695 22.81053711 9.16422852 22.53295898 9.89868164 C22.26870117 10.6012207 22.00444336 11.30375977 21.73217773 12.02758789 C21.49128418 12.66647949 21.25039063 13.30537109 21.00219727 13.96362305 C20.02574209 16.66251328 19.1319705 19.39070959 18.22436523 22.11352539 C8.32436523 22.11352539 -1.57563477 22.11352539 -11.77563477 22.11352539 C-10.00249264 16.794099 -8.30523099 11.74225751 -6.15063477 6.61352539 C-5.51254883 5.08211914 -5.51254883 5.08211914 -4.86157227 3.51977539 C-3.33465469 0.13638969 -3.33465469 0.13638969 0 0 Z M14.90014648 1.33227539 C13.35810547 1.39995117 13.35810547 1.39995117 11.78491211 1.46899414 C10.71305664 1.51668945 9.64120117 1.56438477 8.53686523 1.61352539 C7.4534082 1.6612207 6.36995117 1.70891602 5.25366211 1.75805664 C2.57720403 1.87596228 -0.09921879 1.9946679 -2.77563477 2.11352539 C-4.75563477 8.05352539 -6.73563477 13.99352539 -8.77563477 20.11352539 C-0.52563477 20.11352539 7.72436523 20.11352539 16.22436523 20.11352539 C18.20436523 15.65852539 18.20436523 15.65852539 20.22436523 11.11352539 C21.09061523 9.47383789 21.09061523 9.47383789 21.97436523 7.80102539 C23.50551907 5.00304072 23.50551907 5.00304072 23.22436523 1.11352539 C20.43974244 1.11352539 17.68172335 1.20933277 14.90014648 1.33227539 Z " fill="#0443DE" transform="translate(446.775634765625,89.886474609375)"/>
<path d="M0 0 C0.66 0 1.32 0 2 0 C2.01030746 0.58802399 2.02061493 1.17604797 2.03123474 1.78189087 C2.13959832 7.91410776 2.25417108 14.04618655 2.37231445 20.17822266 C2.41556777 22.46530258 2.45724947 24.75241279 2.49731445 27.03955078 C2.55524999 30.33114746 2.6188771 33.62259301 2.68359375 36.9140625 C2.70030624 37.93303619 2.71701874 38.95200989 2.73423767 40.00186157 C2.83347074 44.78083196 3.12629511 49.288251 4 54 C3.625 56.5 3.625 56.5 3 59 C2.66055205 60.99897128 2.32578384 62.99875639 2 65 C2.66 65.33 3.32 65.66 4 66 C3.855625 66.886875 3.71125 67.77375 3.5625 68.6875 C2.73256094 74.42593581 2.40854359 80.21954276 2 86 C1.67 86 1.34 86 1 86 C1 82.04 1 78.08 1 74 C0.34 73.67 -0.32 73.34 -1 73 C-0.67 48.91 -0.34 24.82 0 0 Z " fill="#02105F" transform="translate(271,383)"/>
<path d="M0 0 C-1.34241803 2.96672354 -2.84316968 5.11933874 -5.08984375 7.46875 C-6.01180542 8.44098511 -6.01180542 8.44098511 -6.95239258 9.43286133 C-7.60747803 10.11501709 -8.26256348 10.79717285 -8.9375 11.5 C-10.29475873 12.93052683 -11.65152507 14.36152099 -13.0078125 15.79296875 C-13.68102539 16.50114746 -14.35423828 17.20932617 -15.04785156 17.93896484 C-17.82778598 20.87395813 -20.57672681 23.83636859 -23.3125 26.8125 C-24.17488281 27.74707031 -25.03726563 28.68164062 -25.92578125 29.64453125 C-28.10697885 32.01574789 -28.10697885 32.01574789 -30 35 C-30.66 35 -31.32 35 -32 35 C-32.27199219 35.58910156 -32.54398438 36.17820313 -32.82421875 36.78515625 C-35.73660814 42.27128511 -40.59529326 46.70272513 -45 51 C-46.27216335 52.26950192 -47.54294196 53.54039265 -48.8125 54.8125 C-49.875 55.875 -50.9375 56.9375 -52 58 C-52.66 57.67 -53.32 57.34 -54 57 C-53.34 55.68 -52.68 54.36 -52 53 C-51.01 53 -50.02 53 -49 53 C-48.7525 52.4225 -48.505 51.845 -48.25 51.25 C-46.83316683 48.6997003 -45.12372463 46.98214299 -43 45 C-43.33 44.34 -43.66 43.68 -44 43 C-42.8553125 42.4121875 -42.8553125 42.4121875 -41.6875 41.8125 C-38.87510617 40.19157735 -38.87510617 40.19157735 -37.5 37.5 C-36 35 -36 35 -33.4375 33.5 C-30.7949639 32.20769726 -30.7949639 32.20769726 -30 29.5 C-28.69081162 26.22702906 -27.04775319 25.63537976 -24 24 C-21.59120835 21.93532144 -21.03668447 21.11005341 -20 18 C-18.328125 16.421875 -18.328125 16.421875 -16.25 14.75 C-12.39182736 11.47471675 -9.65381614 8.31245122 -7 4 C-7 3.01 -7 2.02 -7 1 C-4 0 -4 0 0 0 Z " fill="#072076" transform="translate(570,124)"/>
<path d="M0 0 C-1.30781391 3.81412396 -2.62203015 7.62601043 -3.9375 11.4375 C-4.31068359 12.52611328 -4.68386719 13.61472656 -5.06835938 14.73632812 C-5.42607422 15.77080078 -5.78378906 16.80527344 -6.15234375 17.87109375 C-6.48226318 18.82943115 -6.81218262 19.78776855 -7.15209961 20.77514648 C-8 23 -8 23 -9 24 C-10.85174706 24.15786308 -12.7090911 24.25107356 -14.56640625 24.31640625 C-15.69111328 24.35830078 -16.81582031 24.40019531 -17.97460938 24.44335938 C-19.15861328 24.48267578 -20.34261719 24.52199219 -21.5625 24.5625 C-22.75037109 24.60568359 -23.93824219 24.64886719 -25.16210938 24.69335938 C-28.10794784 24.79983546 -31.0538743 24.90184841 -34 25 C-35 23 -35 23 -34.41088867 20.87695312 C-34.0832251 20.02037109 -33.75556152 19.16378906 -33.41796875 18.28125 C-33.06283203 17.34925781 -32.70769531 16.41726562 -32.34179688 15.45703125 C-31.96087891 14.48121094 -31.57996094 13.50539063 -31.1875 12.5 C-30.81818359 11.52417969 -30.44886719 10.54835938 -30.06835938 9.54296875 C-27.26480772 2.26480772 -27.26480772 2.26480772 -25 0 C-16.78003306 -1.75054852 -8.27996456 -0.78569007 0 0 Z M-25.70507812 3.76757812 C-26.92548777 5.87154227 -27.82198982 7.81117014 -28.60546875 10.109375 C-28.84160889 10.78967773 -29.07774902 11.46998047 -29.32104492 12.17089844 C-29.6069751 13.02200195 -29.89290527 13.87310547 -30.1875 14.75 C-31.115625 17.4725 -32.04375 20.195 -33 23 C-25.41 22.67 -17.82 22.34 -10 22 C-8.5459375 18.4421875 -8.5459375 18.4421875 -7.0625 14.8125 C-6.75836182 14.07491455 -6.45422363 13.3373291 -6.14086914 12.57739258 C-5.89973389 11.98079834 -5.65859863 11.3842041 -5.41015625 10.76953125 C-5.16402588 10.16729736 -4.91789551 9.56506348 -4.66430664 8.94458008 C-3.88335914 6.65856508 -3.4318571 4.37431809 -3 2 C-6.4372166 1.88395321 -9.87393086 1.81280492 -13.3125 1.75 C-14.28896484 1.71648438 -15.26542969 1.68296875 -16.27148438 1.6484375 C-17.20927734 1.63554688 -18.14707031 1.62265625 -19.11328125 1.609375 C-19.97735596 1.58842773 -20.84143066 1.56748047 -21.73168945 1.54589844 C-24.13368187 1.80286066 -24.13368187 1.80286066 -25.70507812 3.76757812 Z " fill="#0A4BE3" transform="translate(570,32)"/>
<path d="M0 0 C0.33 0 0.66 0 1 0 C1.14272556 5.80240128 1.28513426 11.60481022 1.42724609 17.40722656 C1.47566097 19.38216361 1.52416326 21.35709852 1.57275391 23.33203125 C1.64248125 26.16666111 1.7118968 29.00129846 1.78125 31.8359375 C1.80312378 32.72243988 1.82499756 33.60894226 1.84753418 34.52230835 C2 40.77225659 2 40.77225659 2 43 C6.39642348 42.4975516 8.7948982 41.02704059 12 38 C12.33 37.01 12.66 36.02 13 35 C13.99 35 14.98 35 16 35 C16.66 33.35 17.32 31.7 18 30 C18.99 30 19.98 30 21 30 C21 29.34 21 28.68 21 28 C21.66 28 22.32 28 23 28 C23.28875 27.38125 23.5775 26.7625 23.875 26.125 C25 24 25 24 27 22 C28.32 22 29.64 22 31 22 C31 22.66 31 23.32 31 24 C30.34 24 29.68 24 29 24 C29 24.66 29 25.32 29 26 C27.55761719 27.43432617 27.55761719 27.43432617 25.546875 29.10546875 C22.49555561 31.69909023 19.5346899 34.34490369 16.640625 37.11328125 C15.91746094 37.80357422 15.19429687 38.49386719 14.44921875 39.20507812 C12.96516886 40.62718277 11.4834487 42.05172208 10.00390625 43.47851562 C9.28589844 44.16236328 8.56789062 44.84621094 7.828125 45.55078125 C7.1877832 46.16606689 6.54744141 46.78135254 5.88769531 47.4152832 C4 49 4 49 0 51 C0 34.17 0 17.34 0 0 Z " fill="#031059" transform="translate(150,412)"/>
<path d="M0 0 C1.32 0 2.64 0 4 0 C4 3 4 3 2.6015625 4.47265625 C1.94929688 4.99730469 1.29703125 5.52195312 0.625 6.0625 C-3.61235199 9.60360864 -7.46180973 13.42023702 -11.3125 17.375 C-14.07402623 20.07230469 -16.94357613 22.59033038 -19.859375 25.11767578 C-23.48537175 28.30613779 -26.98836833 31.62421049 -30.5 34.9375 C-31.22703125 35.62134766 -31.9540625 36.30519531 -32.703125 37.00976562 C-34.46991714 38.67194507 -36.23552048 40.33536639 -38 42 C-38.66 41.67 -39.32 41.34 -40 41 C-40.09038099 35.84828377 -39.84681133 31.08086796 -39 26 C-38.67 26 -38.34 26 -38 26 C-37.855625 26.94875 -37.71125 27.8975 -37.5625 28.875 C-37.17064601 31.8934494 -37.17064601 31.8934494 -36 34 C-34.01508358 33.73323796 -34.01508358 33.73323796 -32 33 C-31.67 32.01 -31.34 31.02 -31 30 C-30.01 29.34 -29.02 28.68 -28 28 C-25.3485108 25.97649508 -22.92278258 23.92278258 -20.5625 21.5625 C-18.66530535 19.66530535 -16.82175984 17.99364164 -14.75 16.3125 C-11.98257806 14.2957678 -11.98257806 14.2957678 -11 12 C-10.34 12 -9.68 12 -9 12 C-8.7525 11.38125 -8.505 10.7625 -8.25 10.125 C-6.79371361 7.64931313 -5.62187494 7.04874998 -3 6 C-3 5.34 -3 4.68 -3 4 C-2.34 4 -1.68 4 -1 4 C-0.67 2.68 -0.34 1.36 0 0 Z " fill="#061142" transform="translate(310,431)"/>
<path d="M0 0 C0.98291016 0.00322266 1.96582031 0.00644531 2.97851562 0.00976562 C4.51475586 0.02233398 4.51475586 0.02233398 6.08203125 0.03515625 C7.63567383 0.04192383 7.63567383 0.04192383 9.22070312 0.04882812 C11.77870391 0.06061615 14.33658858 0.0770711 16.89453125 0.09765625 C16.32419498 3.20087742 15.62965545 6.09791057 14.51953125 9.05078125 C14.2565625 9.75203125 13.99359375 10.45328125 13.72265625 11.17578125 C13.449375 11.8925 13.17609375 12.60921875 12.89453125 13.34765625 C12.62125 14.07984375 12.34796875 14.81203125 12.06640625 15.56640625 C10.02678571 20.96540179 10.02678571 20.96540179 8.89453125 22.09765625 C7.11583399 22.2553003 5.33134649 22.34866302 3.546875 22.4140625 C2.46728516 22.45595703 1.38769531 22.49785156 0.27539062 22.54101562 C-0.86091797 22.58033203 -1.99722656 22.61964844 -3.16796875 22.66015625 C-4.87823242 22.72493164 -4.87823242 22.72493164 -6.62304688 22.79101562 C-9.4503907 22.89748464 -12.27782613 22.99949832 -15.10546875 23.09765625 C-14.21625899 18.33929456 -12.80913685 13.91424252 -11.23046875 9.34765625 C-10.97394531 8.56777344 -10.71742188 7.78789062 -10.453125 6.984375 C-9.76221422 4.98802477 -8.94215325 3.03743226 -8.10546875 1.09765625 C-5.10530963 0.09760321 -3.13123119 -0.0180996 0 0 Z M-6.10546875 2.09765625 C-8.62831105 8.81113235 -8.62831105 8.81113235 -10.79296875 15.59765625 C-11.17001953 16.8815625 -11.17001953 16.8815625 -11.5546875 18.19140625 C-11.73644531 18.82046875 -11.91820312 19.44953125 -12.10546875 20.09765625 C-9.02285419 20.27229595 -5.94151042 20.37859692 -2.85546875 20.47265625 C-1.98277344 20.52292969 -1.11007812 20.57320312 -0.2109375 20.625 C2.28468458 20.68215165 4.45810725 20.64763398 6.89453125 20.09765625 C9.5171848 17.50742801 9.5171848 17.50742801 10.89453125 14.09765625 C11.3121875 13.205625 11.72984375 12.31359375 12.16015625 11.39453125 C12.485 10.5540625 12.80984375 9.71359375 13.14453125 8.84765625 C13.64726563 7.57148438 13.64726563 7.57148438 14.16015625 6.26953125 C15.00130256 4.16399787 15.00130256 4.16399787 14.89453125 2.09765625 C7.96453125 2.09765625 1.03453125 2.09765625 -6.10546875 2.09765625 Z " fill="#0A53E7" transform="translate(524.10546875,4.90234375)"/>
<path d="M0 0 C24.09 0 48.18 0 73 0 C73 0.66 73 1.32 73 2 C64.75 2 56.5 2 48 2 C47.67 2.66 47.34 3.32 47 4 C46.505 3.505 46.505 3.505 46 3 C44.55815707 2.87778475 43.11056856 2.82227242 41.66381836 2.79467773 C40.7429393 2.77473251 39.82206024 2.75478729 38.87327576 2.73423767 C37.87224319 2.71752518 36.87121063 2.70081268 35.83984375 2.68359375 C34.82024063 2.66281265 33.80063751 2.64203156 32.75013733 2.62062073 C29.47932952 2.55501148 26.20843863 2.49618766 22.9375 2.4375 C20.72590272 2.39432558 18.51431397 2.35071166 16.30273438 2.30664062 C10.86857849 2.1993186 5.43433918 2.09757377 0 2 C0 1.34 0 0.68 0 0 Z " fill="#0845C0" transform="translate(379,198)"/>
<path d="M0 0 C0.66 0 1.32 0 2 0 C1.02433206 3.34092355 0.01354563 6.67039478 -1 10 C-1.31324219 11.07765625 -1.62648438 12.1553125 -1.94921875 13.265625 C-2.27535156 14.33296875 -2.60148438 15.4003125 -2.9375 16.5 C-3.23527344 17.5003125 -3.53304687 18.500625 -3.83984375 19.53125 C-5.25073771 22.53355634 -5.92775462 22.8890699 -9 24 C-12.02441406 24.13525391 -12.02441406 24.13525391 -15.515625 23.9765625 C-16.76601563 23.925 -18.01640625 23.8734375 -19.3046875 23.8203125 C-20.60664062 23.75585938 -21.90859375 23.69140625 -23.25 23.625 C-24.56742188 23.56828125 -25.88484375 23.5115625 -27.2421875 23.453125 C-30.49534406 23.31168341 -33.74772552 23.16026986 -37 23 C-36.67 21.35 -36.34 19.7 -36 18 C-35.34 18 -34.68 18 -34 18 C-34 18.99 -34 19.98 -34 21 C-25.09 20.67 -16.18 20.34 -7 20 C-6.01 17.03 -5.02 14.06 -4 11 C-3.28032606 8.97576661 -2.55283303 6.9542693 -1.8125 4.9375 C-1.46832031 3.99777344 -1.12414062 3.05804688 -0.76953125 2.08984375 C-0.38861328 1.05537109 -0.38861328 1.05537109 0 0 Z " fill="#074BDC" transform="translate(540,71)"/>
<path d="M0 0 C0.66 0 1.32 0 2 0 C0.65705315 2.98577503 -0.8503686 5.03689051 -3.125 7.375 C-15.01222039 20.74812293 -20.02262986 37.71672942 -23 55 C-23.33 55 -23.66 55 -24 55 C-25.49356727 34.29749813 -13.94736434 16.13180542 -1 1 C-0.67 0.67 -0.34 0.34 0 0 Z " fill="#053ADA" transform="translate(248,136)"/>
<path d="M0 0 C0.66 0 1.32 0 2 0 C1.52372025 1.95903745 1.04388577 3.91721097 0.5625 5.875 C0.29566406 6.96554688 0.02882813 8.05609375 -0.24609375 9.1796875 C-1 12 -1 12 -2 14 C4.6 14 11.2 14 18 14 C18.33 12.02 18.66 10.04 19 8 C19.87997689 5.27343949 20.9426227 2.66642971 22 0 C22.33 0 22.66 0 23 0 C23.69401178 6.5931119 21.80728921 8.98177697 19 16 C11.08 16.33 3.16 16.66 -5 17 C-3.59697129 10.68637082 -2.32344464 5.80861159 0 0 Z " fill="#0749E2" transform="translate(557,0)"/>
<path d="M0 0 C0 4.28851973 -2.52644716 6.26504263 -5.25 9.3125 C-6.35562351 10.57538536 -7.46108779 11.83841014 -8.56640625 13.1015625 C-9.13633301 13.74770508 -9.70625977 14.39384766 -10.29345703 15.05957031 C-12.95021722 18.08044728 -15.57006469 21.1325524 -18.1875 24.1875 C-18.68056641 24.76169678 -19.17363281 25.33589355 -19.68164062 25.92749023 C-24.20940889 31.21364465 -28.62504939 36.58655101 -33 42 C-33.99 41.67 -34.98 41.34 -36 41 C-34.85724609 39.78376953 -34.85724609 39.78376953 -33.69140625 38.54296875 C-22.66936482 26.82453177 -22.66936482 26.82453177 -13 14 C-12.34 14 -11.68 14 -11 14 C-10.7421875 13.42507812 -10.484375 12.85015625 -10.21875 12.2578125 C-8.89241701 9.80069562 -7.36278363 7.95089871 -5.5 5.875 C-4.8915625 5.19179687 -4.283125 4.50859375 -3.65625 3.8046875 C-2.46695076 2.50880012 -1.24373566 1.24373566 0 0 Z " fill="#0638D2" transform="translate(138,160)"/>
<path d="M0 0 C-1.38894384 3.10697242 -3.01920689 5.29970916 -5.37109375 7.75 C-6.35625977 8.78640625 -6.35625977 8.78640625 -7.36132812 9.84375 C-8.04646484 10.5553125 -8.73160156 11.266875 -9.4375 12 C-10.79218714 13.41492394 -12.14511318 14.83153656 -13.49609375 16.25 C-14.09607178 16.87390625 -14.6960498 17.4978125 -15.31420898 18.140625 C-17.0109962 20.01212846 -18.51725338 21.95631341 -20 24 C-20.99 23.67 -21.98 23.34 -23 23 C-21.25580136 19.40259031 -19.14560436 17.1497693 -16.125 14.625 C-12.30750854 11.39914928 -9.62165436 8.26018833 -7 4 C-7 3.01 -7 2.02 -7 1 C-4 0 -4 0 0 0 Z " fill="#091A68" transform="translate(570,124)"/>
<path d="M0 0 C2.39954544 3.73631643 2.22993687 7.02795498 2.1953125 11.390625 C2.1924826 12.09523865 2.18965271 12.79985229 2.18673706 13.52581787 C2.17557801 15.7673876 2.15048193 18.00855186 2.125 20.25 C2.11496464 21.77343171 2.10583976 23.29686971 2.09765625 24.8203125 C2.07565291 28.54700586 2.04115272 32.27346333 2 36 C1.01 36 0.02 36 -1 36 C-1.02465098 31.03377651 -1.04283649 26.06758834 -1.05493164 21.10131836 C-1.0599719 19.41055684 -1.06680405 17.71979971 -1.07543945 16.02905273 C-1.08751857 13.60399293 -1.09323123 11.17899056 -1.09765625 8.75390625 C-1.10281754 7.99348526 -1.10797882 7.23306427 -1.11329651 6.44960022 C-1.11349238 4.6326743 -1.06197277 2.81586873 -1 1 C-0.67 0.67 -0.34 0.34 0 0 Z " fill="#021C9A" transform="translate(271,347)"/>
<path d="M0 0 C0.33 0 0.66 0 1 0 C0.125 7.875 0.125 7.875 -1 9 C-2.85174706 9.15786308 -4.7090911 9.25107356 -6.56640625 9.31640625 C-7.69111328 9.35830078 -8.81582031 9.40019531 -9.97460938 9.44335938 C-11.75061523 9.50233398 -11.75061523 9.50233398 -13.5625 9.5625 C-14.75037109 9.60568359 -15.93824219 9.64886719 -17.16210938 9.69335938 C-20.10794784 9.79983546 -23.0538743 9.90184841 -26 10 C-26.33 9.34 -26.66 8.68 -27 8 C-26.06553465 5.96855359 -25.06775224 3.96466413 -24 2 C-23 5 -23 5 -23 7 C-16.07 7 -9.14 7 -2 7 C-1.34 4.69 -0.68 2.38 0 0 Z " fill="#0543DC" transform="translate(562,47)"/>
<path d="M0 0 C1.59134766 0.07831055 1.59134766 0.07831055 3.21484375 0.15820312 C5.81027275 0.28680546 8.40520818 0.42171467 11 0.5625 C9.40519669 5.99141745 7.78534813 11.38121881 5.8125 16.6875 C5.46832031 17.61820313 5.12414062 18.54890625 4.76953125 19.5078125 C4.38861328 20.52488281 4.38861328 20.52488281 4 21.5625 C3.34 21.5625 2.68 21.5625 2 21.5625 C2.23507821 20.08088863 2.48916859 18.60229516 2.75 17.125 C2.88921875 16.30128906 3.0284375 15.47757813 3.171875 14.62890625 C4.301371 10.44657437 6.2405408 6.52128321 8 2.5625 C-5.86 2.0675 -5.86 2.0675 -20 1.5625 C-20 1.2325 -20 0.9025 -20 0.5625 C-13.24105021 -0.53420459 -6.8233785 -0.37148556 0 0 Z " fill="#0340E1" transform="translate(510,41.4375)"/>
<path d="M0 0 C0.33 0 0.66 0 1 0 C1.33 21.45 1.66 42.9 2 65 C1.01 65 0.02 65 -1 65 C-0.67 43.55 -0.34 22.1 0 0 Z " fill="#113D9C" transform="translate(149,399)"/>
<path d="M0 0 C-0.53625 0.1959375 -1.0725 0.391875 -1.625 0.59375 C-14.15530181 5.37504938 -25.9792359 10.94277091 -36 20 C-36.66 19.67 -37.32 19.34 -38 19 C-30.1322793 11.39374433 -11.70887734 -4.46453596 0 0 Z " fill="#0539DE" transform="translate(289,115)"/>
<path d="M0 0 C0.66 0.33 1.32 0.66 2 1 C1.43152344 1.6290625 0.86304688 2.258125 0.27734375 2.90625 C-4.52733425 8.23230374 -9.29037773 13.58986183 -14 19 C-15.31213495 20.50031934 -16.62462751 22.00032601 -17.9375 23.5 C-18.52402344 24.1703125 -19.11054688 24.840625 -19.71484375 25.53125 C-20.35099609 26.25828125 -20.35099609 26.25828125 -21 27 C-21 18.1594899 -6.00032518 6.38613289 0 0 Z " fill="#024BEF" transform="translate(163,131)"/>
<path d="M0 0 C0.66 1.32 1.32 2.64 2 4 C0.25904321 5.82200133 -1.49177132 7.63229575 -3.25 9.4375 C-3.98669922 10.2119043 -3.98669922 10.2119043 -4.73828125 11.00195312 C-9.339246 15.69493717 -9.339246 15.69493717 -13 16 C-13.99 16 -14.98 16 -16 16 C-13.63707344 13.47411298 -12.33537489 12.11179163 -9 11 C-7.69768672 9.50415084 -7.69768672 9.50415084 -6.5625 7.6875 C-4.60813815 4.809258 -2.56422342 2.37428095 0 0 Z " fill="#05278D" transform="translate(222,391)"/>
<path d="M0 0 C0.66 0 1.32 0 2 0 C3.09464528 10.4287152 2.77376479 19.66525472 1 30 C0.67 30 0.34 30 0 30 C0 20.1 0 10.2 0 0 Z " fill="#020D5A" transform="translate(271,201)"/>
<path d="M0 0 C0.33 1.32 0.66 2.64 1 4 C1.66 4 2.32 4 3 4 C3 8.95 3 13.9 3 19 C2.34 19.33 1.68 19.66 1 20 C-1.657623 13.27777713 -0.78767638 7.07844318 0 0 Z " fill="#032FAE" transform="translate(271,331)"/>
<path d="M0 0 C0.33 0 0.66 0 1 0 C1.144375 0.94875 1.28875 1.8975 1.4375 2.875 C1.82935399 5.8934494 1.82935399 5.8934494 3 8 C4.32 8.66 5.64 9.32 7 10 C4.69 11.98 2.38 13.96 0 16 C-1 15 -1 15 -1.125 11.375 C-1.08304465 7.50112278 -0.63639059 3.81834356 0 0 Z " fill="#081849" transform="translate(271,457)"/>
<path d="M0 0 C0.33 0 0.66 0 1 0 C1.06058594 0.58007812 1.12117188 1.16015625 1.18359375 1.7578125 C1.56243299 5.28975985 1.95368218 8.75914733 2.625 12.25 C3.02199447 15.16129278 2.67189349 17.1631164 2 20 C2 21.32 2 22.64 2 24 C1.34 24 0.68 24 0 24 C-1.40364053 15.92906697 -1.40364053 8.07093303 0 0 Z " fill="#010D4F" transform="translate(272,422)"/>
<path d="M0 0 C0 3.43766538 -0.37221381 3.79265376 -2.5546875 6.25 C-3.08707031 6.8584375 -3.61945313 7.466875 -4.16796875 8.09375 C-5.01294922 9.03734375 -5.01294922 9.03734375 -5.875 10 C-6.97793021 11.24879337 -8.07954325 12.4987516 -9.1796875 13.75 C-9.67194824 14.30171875 -10.16420898 14.8534375 -10.67138672 15.421875 C-12.19630226 17.17362506 -12.19630226 17.17362506 -14 20 C-14.99 19.67 -15.98 19.34 -17 19 C-15.71937515 17.2925002 -14.38232443 15.62626404 -13 14 C-12.34 14 -11.68 14 -11 14 C-10.7421875 13.42507812 -10.484375 12.85015625 -10.21875 12.2578125 C-8.89241701 9.80069562 -7.36278363 7.95089871 -5.5 5.875 C-4.58734375 4.85019531 -4.58734375 4.85019531 -3.65625 3.8046875 C-2.46695076 2.50880012 -1.24373566 1.24373566 0 0 Z " fill="#033CDC" transform="translate(138,160)"/>
<path d="M0 0 C7.92 0 15.84 0 24 0 C24 0.33 24 0.66 24 1 C17.85221129 2.6277833 12.35987804 3.20190089 6 3 C6 2.67 6 2.34 6 2 C3.03 1.505 3.03 1.505 0 1 C0 0.67 0 0.34 0 0 Z " fill="#062BA7" transform="translate(355,199)"/>
<path d="M0 0 C1.125 3.75 1.125 3.75 0 6 C0.66 6 1.32 6 2 6 C1.814375 6.763125 1.62875 7.52625 1.4375 8.3125 C0.77180827 11.08967375 0.77180827 11.08967375 2 14 C-0.475 15.485 -0.475 15.485 -3 17 C-2.48517081 11.147205 -1.54642808 5.6702363 0 0 Z " fill="#062371" transform="translate(244,173)"/>
<path d="M0 0 C0.66 0.33 1.32 0.66 2 1 C-1.63 4.96 -5.26 8.92 -9 13 C-9.99 12.67 -10.98 12.34 -12 12 C-8.04 8.04 -4.08 4.08 0 0 Z " fill="#064DE8" transform="translate(44,68)"/>
<path d="M0 0 C0.33 0 0.66 0 1 0 C1.33 8.25 1.66 16.5 2 25 C1.01 25 0.02 25 -1 25 C-0.67 16.75 -0.34 8.5 0 0 Z " fill="#153584" transform="translate(149,439)"/>
<path d="M0 0 C0 3.96130371 -1.34877125 4.82914401 -4 7.6875 C-4.7425 8.49574219 -5.485 9.30398437 -6.25 10.13671875 C-6.8275 10.75160156 -7.405 11.36648437 -8 12 C-8 8.24111186 -7.049166 7.58681685 -4.5625 4.875 C-3.92441406 4.17117187 -3.28632813 3.46734375 -2.62890625 2.7421875 C-1.76410115 1.81724008 -0.89538137 0.89538137 0 0 Z " fill="#0343E7" transform="translate(150,146)"/>
<path d="M0 0 C0.99 0.33 1.98 0.66 3 1 C1.71520959 2.50589388 0.42195918 4.00457375 -0.875 5.5 C-1.95394531 6.75296875 -1.95394531 6.75296875 -3.0546875 8.03125 C-3.69664063 8.6809375 -4.33859375 9.330625 -5 10 C-5.66 10 -6.32 10 -7 10 C-5.33248852 6.05860922 -2.77289351 3.2107188 0 0 Z " fill="#0552F0" transform="translate(64,45)"/>
<path d="M0 0 C0.33 0.66 0.66 1.32 1 2 C1.99 2 2.98 2 4 2 C3.67 2.598125 3.34 3.19625 3 3.8125 C1.79212012 6.05386471 1.79212012 6.05386471 2 9 C1.01 9.495 1.01 9.495 0 10 C0 6.7 0 3.4 0 0 Z " fill="#041F6B" transform="translate(151,453)"/>
<path d="M0 0 C2.49310643 3.73965964 2.0603261 5.29070641 1.625 9.6875 C1.51414062 10.86699219 1.40328125 12.04648437 1.2890625 13.26171875 C1.19367188 14.16535156 1.09828125 15.06898438 1 16 C0.67 16 0.34 16 0 16 C0 12.04 0 8.08 0 4 C-0.66 3.67 -1.32 3.34 -2 3 C-1.34 3 -0.68 3 0 3 C0 2.01 0 1.02 0 0 Z " fill="#000532" transform="translate(272,453)"/>
<path d="M0 0 C0.66 0 1.32 0 2 0 C1.6875 1.9375 1.6875 1.9375 1 4 C0.01 4.33 -0.98 4.66 -2 5 C-2 5.66 -2 6.32 -2 7 C-3.65 7.66 -5.3 8.32 -7 9 C-6.57847656 8.51789063 -6.15695313 8.03578125 -5.72265625 7.5390625 C-5.17480469 6.90742188 -4.62695312 6.27578125 -4.0625 5.625 C-3.51722656 4.99851562 -2.97195312 4.37203125 -2.41015625 3.7265625 C-0.93041376 2.04367666 -0.93041376 2.04367666 0 0 Z " fill="#051C6D" transform="translate(196,417)"/>
<path d="M0 0 C0 4.38968456 -2.12805101 5.76905739 -5 9 C-5.99 8.67 -6.98 8.34 -8 8 C-5.36 5.36 -2.72 2.72 0 0 Z " fill="#0445E3" transform="translate(138,160)"/>
<path d="M0 0 C2.30143236 3.45214853 2.13833854 4.23479324 1.625 8.1875 C1.51414062 9.08855469 1.40328125 9.98960937 1.2890625 10.91796875 C1.19367188 11.60503906 1.09828125 12.29210937 1 13 C0.67 13 0.34 13 0 13 C-0.19397476 11.02145742 -0.38001321 9.0421352 -0.5625 7.0625 C-0.66691406 5.96035156 -0.77132813 4.85820312 -0.87890625 3.72265625 C-0.91886719 2.82417969 -0.95882813 1.92570312 -1 1 C-0.67 0.67 -0.34 0.34 0 0 Z " fill="#0326B3" transform="translate(271,299)"/>
<path d="M0 0 C0.33 0.99 0.66 1.98 1 3 C-0.62339805 4.70884005 -2.29319053 6.37446717 -4 8 C-4.66 8 -5.32 8 -6 8 C-4.55746343 4.63408134 -2.66735273 2.48952921 0 0 Z " fill="#0A2686" transform="translate(505,193)"/>
<path d="M0 0 C0.33 0.99 0.66 1.98 1 3 C-0.98 4.98 -2.96 6.96 -5 9 C-5.66 8.67 -6.32 8.34 -7 8 C-4.69 5.36 -2.38 2.72 0 0 Z " fill="#07207F" transform="translate(514,183)"/>
<path d="M0 0 C1.32 0 2.64 0 4 0 C4 0.66 4 1.32 4 2 C3.34 2 2.68 2 2 2 C2 2.66 2 3.32 2 4 C0.35 4 -1.3 4 -3 4 C-1.75 2 -1.75 2 0 0 Z " fill="#021874" transform="translate(177,434)"/>
<path d="M0 0 C0.66 0.33 1.32 0.66 2 1 C0.88121617 2.17262904 -0.24523051 3.33795138 -1.375 4.5 C-2.00148437 5.1496875 -2.62796875 5.799375 -3.2734375 6.46875 C-5 8 -5 8 -7 8 C-5.61918777 3.8575633 -3.40174442 2.67796901 0 0 Z " fill="#02288B" transform="translate(194,418)"/>
<path d="M0 0 C0.66 0.33 1.32 0.66 2 1 C0.35 2.98 -1.3 4.96 -3 7 C-3.99 6.67 -4.98 6.34 -6 6 C-4.02 4.02 -2.04 2.04 0 0 Z " fill="#0C47D0" transform="translate(7,108)"/>
<path d="M0 0 C2.64 0 5.28 0 8 0 C7.67 0.66 7.34 1.32 7 2 C4.67843403 2.40729228 2.3431213 2.74438677 0 3 C0 2.01 0 1.02 0 0 Z " fill="#08226B" transform="translate(267,199)"/>
<path d="M0 0 C0.66 0.99 1.32 1.98 2 3 C-0.475 4.485 -0.475 4.485 -3 6 C-1.125 1.125 -1.125 1.125 0 0 Z " fill="#071D67" transform="translate(254,153)"/>
<path d="M0 0 C0.33 0 0.66 0 1 0 C1 1.65 1 3.3 1 5 C0.67 5 0.34 5 0 5 C0 3.35 0 1.7 0 0 Z " fill="#0019FF" transform="translate(147,244)"/>
<path d="M0 0 C1.65 0 3.3 0 5 0 C5 0.33 5 0.66 5 1 C3.35 1 1.7 1 0 1 C0 0.67 0 0.34 0 0 Z " fill="#0043BA" transform="translate(560,121)"/>
<path d="M0 0 C1 4 1 4 1 4 Z " fill="#001FFF" transform="translate(147,287)"/>
<path d="M0 0 C1 4 1 4 1 4 Z " fill="#001FFF" transform="translate(226,191)"/>
<path d="" fill="#002AFF" transform="translate(0,0)"/>
<path d="" fill="#0000BF" transform="translate(0,0)"/>
<path d="" fill="#0000FF" transform="translate(0,0)"/>
<path d="" fill="#002AD4" transform="translate(0,0)"/>
<path d="" fill="#0000FF" transform="translate(0,0)"/>
<path d="" fill="#003FFF" transform="translate(0,0)"/>
<path d="M0 0 C2 1 2 1 2 1 Z " fill="#0000FF" transform="translate(453,88)"/>
<path d="M0 0 C2 1 2 1 2 1 Z " fill="#0000FF" transform="translate(463,40)"/>
<path d="" fill="#005555" transform="translate(0,0)"/>
<path d="" fill="#000000" transform="translate(0,0)"/>
<path d="" fill="#000000" transform="translate(0,0)"/>
<path d="" fill="#00007F" transform="translate(0,0)"/>
<path d="" fill="#0000FF" transform="translate(0,0)"/>
<path d="" fill="#00007F" transform="translate(0,0)"/>
<path d="" fill="#0000FF" transform="translate(0,0)"/>
<path d="" fill="#0000FF" transform="translate(0,0)"/>
<path d="" fill="#0000FF" transform="translate(0,0)"/>
<path d="" fill="#0000FF" transform="translate(0,0)"/>
<path d="" fill="#0000FF" transform="translate(0,0)"/>
<path d="" fill="#0000FF" transform="translate(0,0)"/>
<path d="" fill="#007FFF" transform="translate(0,0)"/>
<path d="" fill="#0000FF" transform="translate(0,0)"/>
<path d="" fill="#0000FF" transform="translate(0,0)"/>
<path d="" fill="#0000FF" transform="translate(0,0)"/>
<path d="" fill="#0000FF" transform="translate(0,0)"/>
<path d="" fill="#0000FF" transform="translate(0,0)"/>
<path d="" fill="#0000FF" transform="translate(0,0)"/>
<path d="" fill="#007FFF" transform="translate(0,0)"/>
<path d="" fill="#0000FF" transform="translate(0,0)"/>
<path d="" fill="#00007F" transform="translate(0,0)"/>
<path d="" fill="#007FFF" transform="translate(0,0)"/>
<path d="" fill="#0000FF" transform="translate(0,0)"/>
<path d="" fill="#007FFF" transform="translate(0,0)"/>
<path d="" fill="#0055AA" transform="translate(0,0)"/>
<path d="" fill="#0000FF" transform="translate(0,0)"/>
<path d="" fill="#003FBF" transform="translate(0,0)"/>
<path d="" fill="#0000FF" transform="translate(0,0)"/>
<path d="" fill="#0055AA" transform="translate(0,0)"/>
<path d="" fill="#0000FF" transform="translate(0,0)"/>
<path d="" fill="#0000FF" transform="translate(0,0)"/>
<path d="" fill="#0000FF" transform="translate(0,0)"/>
<path d="" fill="#0000FF" transform="translate(0,0)"/>
<path d="" fill="#0000FF" transform="translate(0,0)"/>
<path d="" fill="#0000FF" transform="translate(0,0)"/>
<path d="" fill="#0000FF" transform="translate(0,0)"/>
<path d="" fill="#0055FF" transform="translate(0,0)"/>
<path d="" fill="#0000FF" transform="translate(0,0)"/>
<path d="" fill="#0055FF" transform="translate(0,0)"/>
<path d="" fill="#0000FF" transform="translate(0,0)"/>
<path d="" fill="#0000FF" transform="translate(0,0)"/>
<path d="" fill="#007FFF" transform="translate(0,0)"/>
<path d="" fill="#0000FF" transform="translate(0,0)"/>
<path d="" fill="#0000FF" transform="translate(0,0)"/>
<path d="" fill="#007FFF" transform="translate(0,0)"/>
<path d="" fill="#0000FF" transform="translate(0,0)"/>
<path d="" fill="#0000FF" transform="translate(0,0)"/>
<path d="" fill="#0000FF" transform="translate(0,0)"/>
<path d="" fill="#0000FF" transform="translate(0,0)"/>
<path d="" fill="#0000FF" transform="translate(0,0)"/>
<path d="" fill="#0000FF" transform="translate(0,0)"/>
<path d="" fill="#0000FF" transform="translate(0,0)"/>
<path d="" fill="#0000FF" transform="translate(0,0)"/>
<path d="" fill="#007FFF" transform="translate(0,0)"/>
</svg>
